<svg version="1.1" xmlns="http://www.w3.org/2000/svg" viewBox="0 0 172 169.669341363326" width="172" height="169.669341363326"><!-- svg-source:excalidraw --><metadata></metadata><defs><style class="style-fonts">
      @font-face { font-family: Excalifont; src: url(https://esm.sh/@excalidraw/excalidraw/dist/prod/fonts/Excalifont/Excalifont-Regular-a88b72a24fb54c9f94e3b5fdaa7481c9.woff2); }</style></defs><g stroke-linecap="round" transform="translate(10 10) rotate(0 72.5 72.5)"><path d="M17.69 25.97 C17.69 25.97, 17.69 25.97, 17.69 25.97 M17.69 25.97 C17.69 25.97, 17.69 25.97, 17.69 25.97 M10.21 40.67 C17.05 29.98, 25.15 25.09, 32.51 15.01 M10.21 40.67 C15.58 35.21, 20.64 28.64, 32.51 15.01 M3.39 54.62 C17.72 39.53, 31.22 24.08, 45.37 6.32 M3.39 54.62 C13.33 44.86, 21.3 34.71, 45.37 6.32 M3.12 61.02 C17.09 41.99, 35.2 26.09, 51.67 5.17 M3.12 61.02 C13.78 49.96, 22.61 38.16, 51.67 5.17 M2.86 67.41 C15.49 54.83, 23.46 40.44, 57.97 4.02 M2.86 67.41 C15.06 52.56, 27.48 40.2, 57.97 4.02 M2.6 73.81 C24.85 45.8, 49.58 18.66, 64.27 2.87 M2.6 73.81 C18.51 55.93, 34.77 38.84, 64.27 2.87 M2.34 80.21 C23.23 52.06, 49.71 25.38, 70.57 1.72 M2.34 80.21 C24.93 53.02, 48.28 26.18, 70.57 1.72 M2.08 86.61 C17.91 68.47, 34.58 48.28, 76.21 1.33 M2.08 86.61 C22.65 61.37, 44.83 37.75, 76.21 1.33 M3.79 90.74 C17.8 73.74, 35.33 54.83, 80.54 2.44 M3.79 90.74 C24.1 66.9, 45.36 41.67, 80.54 2.44 M6.15 94.12 C24.03 76.74, 39.7 57.55, 84.88 3.56 M6.15 94.12 C25.1 69.4, 46.93 47.3, 84.88 3.56 M7.85 98.25 C36.74 62.75, 66.53 30.03, 89.21 4.67 M7.85 98.25 C35.55 67.11, 62.88 36.58, 89.21 4.67 M9.56 102.39 C43.89 66.59, 72.64 27.23, 94.19 5.03 M9.56 102.39 C39.51 69.2, 68.54 33.67, 94.19 5.03 M11.27 106.52 C30.37 85.15, 49.28 61.23, 98.52 6.14 M11.27 106.52 C37.68 77.67, 61.66 50.48, 98.52 6.14 M12.98 110.66 C33.24 89.84, 52.35 65.55, 102.86 7.26 M12.98 110.66 C32.64 87.26, 51.48 64.43, 102.86 7.26 M14.68 114.79 C38.23 91.95, 57.38 64.59, 107.19 8.37 M14.68 114.79 C46.07 77.97, 77.43 41.56, 107.19 8.37 M17.04 118.17 C41.84 89.26, 65.46 60.51, 110.2 11 M17.04 118.17 C47.9 82.68, 78.89 46.16, 110.2 11 M20.06 120.79 C49.46 89.58, 78.37 54.13, 113.22 13.62 M20.06 120.79 C54.81 83.07, 87.24 43.48, 113.22 13.62 M23.08 123.42 C54.9 88.5, 82.4 54.23, 116.24 16.25 M23.08 123.42 C44.35 98.36, 66.55 75.07, 116.24 16.25 M26.1 126.04 C51.24 98.43, 72.4 73.3, 119.26 18.87 M26.1 126.04 C47.88 101.87, 69.58 77.44, 119.26 18.87 M29.12 128.66 C51.59 104.43, 72.44 80.42, 122.28 21.5 M29.12 128.66 C56.16 98.69, 81.81 68.56, 122.28 21.5 M32.14 131.29 C57.23 102.6, 79.73 77.36, 124.64 24.87 M32.14 131.29 C60.78 98.12, 88.82 64.99, 124.64 24.87 M35.16 133.91 C63.31 101.99, 94.67 69.02, 127.66 27.5 M35.16 133.91 C60.7 104.18, 86.48 74.81, 127.66 27.5 M38.18 136.54 C62.76 110.4, 82.62 86.21, 130.68 30.12 M38.18 136.54 C71.67 97.62, 104.51 59.03, 130.68 30.12 M41.85 138.41 C69.44 102.43, 101.49 68.6, 132.39 34.26 M41.85 138.41 C68.78 106.85, 96.49 75.5, 132.39 34.26 M46.18 139.52 C75.04 107.81, 104.98 72.38, 134.09 38.39 M46.18 139.52 C65.57 115.28, 87.63 90.52, 134.09 38.39 M50.51 140.64 C74.76 109.36, 98.4 82.78, 135.8 42.52 M50.51 140.64 C71.45 116.28, 93.55 92.42, 135.8 42.52 M55.5 141 C82.26 107.45, 110.59 76.53, 137.51 46.66 M55.5 141 C86.7 104.14, 120.24 65.75, 137.51 46.66 M59.83 142.11 C85.38 114.89, 106.4 88.62, 139.21 50.79 M59.83 142.11 C79.93 118.98, 100.45 93.95, 139.21 50.79 M64.16 143.23 C89.54 116.38, 112 90.34, 140.92 54.93 M64.16 143.23 C91.74 111.34, 120.84 77.69, 140.92 54.93 M68.49 144.34 C89.69 121.01, 107.89 99.82, 142.63 59.06 M68.49 144.34 C94.13 115.21, 117.51 87.69, 142.63 59.06 M74.79 143.19 C101.48 116.99, 125.99 87.92, 143.02 64.7 M74.79 143.19 C94.98 119.42, 114.14 97.97, 143.02 64.7 M80.44 142.8 C103.26 114.44, 128.66 88.25, 143.42 70.34 M80.44 142.8 C97.22 122.36, 115.63 100.95, 143.42 70.34 M86.73 141.65 C99.68 125.85, 115.57 107.84, 143.16 76.74 M86.73 141.65 C110.42 116.22, 132.2 89.89, 143.16 76.74 M93.03 140.5 C108.65 120.63, 123.84 103.15, 142.89 83.14 M93.03 140.5 C103.77 128.15, 114.2 116.78, 142.89 83.14 M99.33 139.35 C110.55 124.67, 120.4 113.06, 143.29 88.78 M99.33 139.35 C113.28 122.78, 128.43 106.93, 143.29 88.78 M111.54 131.41 C122.91 121.56, 133.22 110.39, 138.43 100.46 M111.54 131.41 C117.54 124.35, 123.38 119.4, 138.43 100.46 M125.05 121.96 C126.79 119.72, 128.08 118.02, 128.99 117.43 M125.05 121.96 C126.35 120.41, 128.12 119.03, 128.99 117.43 M38.3 137.32 C38.3 137.32, 38.3 137.32, 38.3 137.32 M38.3 137.32 C38.3 137.32, 38.3 137.32, 38.3 137.32 M46.21 138.9 C34 130.82, 23.5 117.79, 12.25 109.38 M46.21 138.9 C36.52 131.24, 26.22 122.03, 12.25 109.38 M54.87 141.13 C43.8 132.6, 30.68 122.79, 8.83 101.11 M54.87 141.13 C42.25 129.97, 29.14 118.54, 8.83 101.11 M62.78 142.7 C40.8 126.07, 23.21 107.72, 5.42 92.84 M62.78 142.7 C43.08 127.07, 24.81 109.56, 5.42 92.84 M69.93 143.62 C44.17 123.31, 21.18 102.87, 2.01 84.57 M69.93 143.62 C48.59 123.52, 24.47 104.65, 2.01 84.57 M75.57 143.22 C46.81 119.75, 22.18 96.55, 2.37 79.59 M75.57 143.22 C54.42 124.51, 33.17 105.01, 2.37 79.59 M80.46 142.17 C55.92 123.21, 32.46 99.12, 2.73 74.6 M80.46 142.17 C60.75 125.46, 42.41 108.61, 2.73 74.6 M85.35 141.12 C62.46 120.95, 38.9 103.51, 3.09 69.61 M85.35 141.12 C60.98 118.78, 37.13 99.11, 3.09 69.61 M90.99 140.73 C60.53 113.89, 25.31 86.52, 3.45 64.63 M90.99 140.73 C73.8 125.24, 54.88 108.08, 3.45 64.63 M95.88 139.68 C74.09 121.03, 54.11 103.25, 3.81 59.64 M95.88 139.68 C71.08 118.01, 47.05 97.26, 3.81 59.64 M100.77 138.63 C74.79 117.53, 50 92.77, 3.41 54 M100.77 138.63 C78.04 118.78, 53.72 98.45, 3.41 54 M104.15 136.26 C82.51 117.04, 60.56 99.88, 5.28 50.32 M104.15 136.26 C83.44 117.67, 61.18 99.78, 5.28 50.32 M107.53 133.9 C70.89 101.96, 36.53 70.84, 7.15 46.65 M107.53 133.9 C85.43 113.97, 64.26 94.9, 7.15 46.65 M110.91 131.54 C80.86 106.34, 50.66 77.77, 9.02 42.97 M110.91 131.54 C88.92 113.13, 66.6 94.52, 9.02 42.97 M114.29 129.18 C82.44 103.96, 52.37 77.79, 10.89 39.3 M114.29 129.18 C84.02 102.69, 52.52 74.73, 10.89 39.3 M117.67 126.81 C82.43 97.7, 48.37 66.07, 12.76 35.62 M117.67 126.81 C80.25 92.89, 40.73 59.92, 12.76 35.62 M121.04 124.45 C88.61 99.74, 61.2 72.79, 14.63 31.95 M121.04 124.45 C91.1 100.81, 62.06 74.81, 14.63 31.95 M124.42 122.09 C97.21 97.83, 67.87 73.75, 16.5 28.27 M124.42 122.09 C97.53 97.99, 68.59 73.55, 16.5 28.27 M127.8 119.72 C99.67 94.1, 73.89 70.96, 19.12 25.25 M127.8 119.72 C84.55 82.17, 41.85 44.98, 19.12 25.25 M129.67 116.05 C102.82 91.08, 73.59 69.32, 21.75 22.23 M129.67 116.05 C94.38 85.78, 57.83 54.08, 21.75 22.23 M131.54 112.38 C96.57 81.05, 62.99 50.95, 25.13 19.87 M131.54 112.38 C92.81 78.95, 52.53 44.77, 25.13 19.87 M133.41 108.7 C100.67 80.44, 69.34 53.48, 28.51 17.51 M133.41 108.7 C107.45 86.15, 80.98 64.34, 28.51 17.51 M136.03 105.68 C107.45 80.89, 76.39 53.04, 31.88 15.15 M136.03 105.68 C98.58 72.35, 60.84 39.4, 31.88 15.15 M137.9 102.01 C106.79 73.33, 73.21 45.02, 35.26 12.78 M137.9 102.01 C101.12 70.24, 63.53 38.91, 35.26 12.78 M139.77 98.33 C100.41 65.19, 60.32 29.2, 38.64 10.42 M139.77 98.33 C100.87 64.13, 61.53 28.06, 38.64 10.42 M141.64 94.66 C105.35 66.42, 71.11 34.8, 42.02 8.06 M141.64 94.66 C113.7 70.06, 84.29 46.25, 42.02 8.06 M142.76 90.33 C114.22 65.69, 84.68 41.07, 45.4 5.69 M142.76 90.33 C107.1 62.31, 73.86 32.43, 45.4 5.69 M143.12 85.34 C108.19 58.19, 77.52 30.17, 50.29 4.64 M143.12 85.34 C118.85 64.03, 95.65 44.33, 50.29 4.64 M142.72 79.7 C116.93 58.35, 89.46 31.58, 55.93 4.25 M142.72 79.7 C111.65 51.79, 80.48 24.6, 55.93 4.25 M143.08 74.71 C117.64 49.16, 87.26 27.2, 60.82 3.2 M143.08 74.71 C111.08 46.43, 78.22 18.06, 60.82 3.2 M143.44 69.72 C126.99 56.76, 110.01 39.9, 65.71 2.15 M143.44 69.72 C125.66 54.19, 108.75 39.9, 65.71 2.15 M143.05 64.08 C119.95 45, 97.88 26.61, 71.35 1.75 M143.05 64.08 C122.49 45.98, 101.85 28.76, 71.35 1.75 M143.41 59.09 C115.14 36.2, 88.94 12.21, 76.24 0.7 M143.41 59.09 C117.24 36.12, 92.52 14.57, 76.24 0.7 M140 50.82 C118.43 33.09, 101.85 16.4, 84.15 2.28 M140 50.82 C122.54 36.13, 103.93 19.48, 84.15 2.28 M136.58 42.56 C121.55 31.02, 108.1 17.95, 92.81 4.51 M136.58 42.56 C122.81 29.51, 108.77 17.16, 92.81 4.51 M133.17 34.29 C127.71 28.87, 120.44 23.88, 100.72 6.08 M133.17 34.29 C126.49 29.02, 120.18 21.68, 100.72 6.08" stroke="#e9ecef" stroke-width="0.5" fill="none"></path><path d="M106.84 7.86 C116.25 11.72, 124.54 21.23, 130.57 29.87 C136.61 38.5, 140.99 49.33, 143.04 59.69 C145.09 70.04, 145.49 81.91, 142.86 92 C140.23 102.1, 134.26 112.42, 127.25 120.26 C120.24 128.09, 110.38 135.02, 100.81 139.03 C91.25 143.03, 80.29 144.58, 69.86 144.29 C59.43 143.99, 47.39 142.01, 38.23 137.27 C29.08 132.52, 21.01 124.49, 14.95 115.81 C8.88 107.14, 3.75 95.44, 1.84 85.2 C-0.07 74.96, 0.87 64.25, 3.5 54.39 C6.13 44.53, 10.88 34.05, 17.62 26.05 C24.37 18.04, 34.27 10.52, 43.95 6.35 C53.64 2.17, 64.71 0.36, 75.73 1.02 C86.75 1.68, 103.49 8.06, 110.08 10.3 C116.66 12.53, 115.7 13.27, 115.24 14.43 M38.37 7.18 C46.78 1.69, 60.3 -0.2, 70.88 -0.42 C81.46 -0.64, 92.41 1.47, 101.83 5.85 C111.26 10.24, 120.85 17.77, 127.43 25.89 C134.01 34.02, 138.67 44.43, 141.31 54.6 C143.94 64.78, 144.72 76.99, 143.23 86.96 C141.75 96.92, 138.58 106.15, 132.38 114.42 C126.19 122.68, 115.48 131.37, 106.09 136.53 C96.69 141.69, 86.2 144.85, 76 145.39 C65.79 145.93, 54.36 143.87, 44.84 139.77 C35.32 135.67, 25.95 129.09, 18.86 120.79 C11.77 112.5, 5.27 100.31, 2.3 89.98 C-0.68 79.66, -1.05 68.66, 1 58.83 C3.04 49.01, 8.4 39.42, 14.56 31.02 C20.73 22.63, 33.85 11.94, 37.96 8.44 C42.08 4.94, 38.4 8.99, 39.26 10.04" stroke="#e9ecef" stroke-width="1" fill="none"></path></g><g transform="translate(11 66) rotate(0 71 0)" stroke="none"><path fill="#868e96" d="M 0,-2.02 Q 0,-2.02 1.72,-2.02 3.44,-2.01 5.04,-2.03 6.64,-2.06 8.75,-1.96 10.87,-1.86 12.63,-1.87 14.39,-1.88 16.29,-1.86 18.19,-1.84 19.86,-1.87 21.53,-1.89 23.67,-1.81 25.82,-1.74 27.31,-1.80 28.80,-1.87 30.29,-1.92 31.79,-1.97 33.57,-1.96 35.36,-1.95 36.98,-1.97 38.60,-2.00 40.72,-1.91 42.85,-1.81 45.19,-1.75 47.53,-1.68 49.39,-1.69 51.25,-1.70 53.48,-1.65 55.70,-1.59 58.66,-1.56 61.62,-1.52 63.74,-1.49 65.86,-1.46 68.20,-1.44 70.54,-1.42 72.68,-1.40 74.83,-1.39 77.17,-1.38 79.52,-1.37 81.67,-1.36 83.82,-1.35 86.17,-1.35 88.52,-1.34 90.09,-1.44 91.67,-1.53 92.91,-1.64 94.16,-1.74 95.26,-1.84 96.36,-1.93 97.70,-1.99 99.03,-2.06 100.46,-2.10 101.88,-2.14 103.07,-2.19 104.25,-2.25 105.32,-2.30 106.40,-2.36 108.01,-2.34 109.62,-2.32 111.86,-2.40 114.11,-2.48 115.51,-2.48 116.92,-2.49 118.47,-2.58 120.01,-2.67 121.45,-2.65 122.88,-2.63 124.06,-2.65 125.25,-2.66 126.61,-2.65 127.98,-2.65 129.13,-2.66 130.29,-2.68 132.26,-2.72 134.23,-2.77 135.31,-2.78 136.40,-2.80 139.20,-2.84 142,-2.89 142.46,-2.81 142.92,-2.74 143.33,-2.52 143.75,-2.30 144.07,-1.96 144.39,-1.62 144.59,-1.19 144.78,-0.77 144.83,-0.30 144.88,0.15 144.78,0.61 144.68,1.07 144.44,1.47 144.20,1.87 143.84,2.17 143.49,2.47 143.05,2.65 142.62,2.82 142.15,2.85 141.68,2.87 141.23,2.75 140.78,2.62 140.39,2.36 140.00,2.10 139.72,1.72 139.44,1.35 139.29,0.91 139.14,0.46 139.14,-0.00 139.14,-0.46 139.29,-0.91 139.44,-1.35 139.72,-1.72 140.01,-2.10 140.39,-2.36 140.78,-2.62 141.23,-2.75 141.68,-2.87 142.15,-2.85 142.62,-2.82 143.05,-2.65 143.49,-2.47 143.84,-2.17 144.20,-1.87 144.44,-1.47 144.68,-1.07 144.78,-0.61 144.88,-0.15 144.83,0.30 144.78,0.77 144.59,1.19 144.39,1.62 144.07,1.96 143.75,2.30 143.33,2.52 142.92,2.74 142.46,2.81 141.99,2.89 141.99,2.89 142,2.89 139.20,2.84 136.40,2.80 135.31,2.78 134.23,2.77 132.26,2.72 130.29,2.68 129.13,2.66 127.98,2.65 126.61,2.65 125.25,2.66 124.06,2.65 122.88,2.63 121.45,2.65 120.01,2.67 118.47,2.58 116.92,2.49 115.51,2.48 114.11,2.48 111.86,2.40 109.62,2.32 108.01,2.34 106.40,2.36 105.32,2.30 104.25,2.25 103.07,2.19 101.88,2.14 100.46,2.10 99.03,2.06 97.70,1.99 96.36,1.93 95.26,1.84 94.16,1.74 92.91,1.64 91.67,1.53 90.09,1.44 88.52,1.34 86.17,1.35 83.82,1.35 81.67,1.36 79.52,1.37 77.17,1.38 74.83,1.39 72.68,1.40 70.54,1.42 68.20,1.44 65.86,1.46 63.74,1.49 61.62,1.52 58.66,1.56 55.70,1.59 53.48,1.65 51.25,1.70 49.39,1.69 47.53,1.68 45.19,1.75 42.85,1.81 40.72,1.91 38.60,2.00 36.98,1.97 35.36,1.95 33.57,1.96 31.79,1.97 30.29,1.92 28.80,1.87 27.31,1.80 25.82,1.74 23.67,1.81 21.53,1.89 19.86,1.87 18.19,1.84 16.29,1.86 14.39,1.88 12.63,1.87 10.87,1.86 8.75,1.96 6.64,2.06 5.04,2.03 3.44,2.01 1.72,2.02 0,2.02 -0.24,1.99 -0.48,1.96 -0.71,1.87 -0.94,1.79 -1.14,1.65 -1.34,1.51 -1.50,1.33 -1.66,1.14 -1.77,0.93 -1.89,0.71 -1.94,0.48 -2.00,0.24 -2.00,-0.00 -2.00,-0.24 -1.94,-0.48 -1.89,-0.71 -1.77,-0.93 -1.66,-1.14 -1.50,-1.33 -1.34,-1.51 -1.14,-1.65 -0.93,-1.79 -0.71,-1.87 -0.48,-1.96 -0.24,-1.99 0.00,-2.02 0.00,-2.02 L 0,-2.02 Z"></path></g><g transform="translate(15 57) rotate(0 66 -16)" stroke="none"><path fill="#868e96" d="M 1.92,-1.28 Q 1.92,-1.28 2.54,-0.45 3.16,0.38 4.31,0.74 5.46,1.11 7.02,1.27 8.58,1.42 9.90,1.23 11.21,1.04 12.36,0.28 13.51,-0.46 14.22,-1.29 14.92,-2.12 15.43,-3.16 15.93,-4.21 16.88,-5.48 17.83,-6.75 18.41,-8.30 18.99,-9.86 19.30,-11.61 19.60,-13.37 19.71,-15.00 19.81,-16.63 19.80,-17.89 19.79,-19.16 19.78,-20.55 19.77,-21.94 19.89,-20.60 20.01,-19.27 19.91,-17.34 19.81,-15.40 19.74,-13.86 19.66,-12.32 20.05,-11.11 20.44,-9.90 21.40,-9.25 22.35,-8.60 23.91,-8.23 25.46,-7.86 27.07,-7.67 28.67,-7.47 30.76,-7.28 32.85,-7.09 35.08,-7.25 37.30,-7.41 38.97,-8.01 40.64,-8.62 41.90,-9.21 43.16,-9.80 44.00,-10.96 44.84,-12.12 45.49,-13.42 46.14,-14.73 46.38,-16.23 46.62,-17.73 46.69,-18.97 46.76,-20.20 46.35,-21.88 45.94,-23.56 45.01,-25.38 44.08,-27.21 43.12,-28.13 42.17,-29.06 40.80,-29.33 39.43,-29.60 38.16,-29.53 36.89,-29.45 36.39,-28.39 35.89,-27.33 35.79,-25.39 35.69,-23.44 37.02,-22.35 38.35,-21.25 39.82,-20.38 41.30,-19.51 44.28,-19.09 47.26,-18.67 49.78,-18.41 52.30,-18.14 55.36,-17.99 58.43,-17.84 60.70,-18.31 62.98,-18.78 64.40,-19.54 65.83,-20.30 66.57,-21.97 67.31,-23.65 67.46,-25.50 67.61,-27.35 67.62,-28.68 67.64,-30.01 67.56,-31.78 67.49,-33.54 65.53,-33.82 63.58,-34.10 61.94,-34.10 60.30,-34.10 59.67,-32.38 59.05,-30.65 60.65,-29.69 62.24,-28.73 63.82,-28.36 65.39,-27.98 67.02,-27.79 68.64,-27.60 70.46,-27.46 72.28,-27.32 73.64,-27.32 75.01,-27.33 76.42,-27.33 77.84,-27.33 78.04,-29.00 78.23,-30.68 77.99,-32.20 77.75,-33.73 76.92,-34.45 76.09,-35.17 75.20,-36.02 74.31,-36.87 74.15,-34.62 73.99,-32.37 74.01,-30.20 74.03,-28.02 75.26,-26.25 76.49,-24.48 77.83,-22.71 79.17,-20.95 81.77,-19.77 84.37,-18.58 86.69,-17.70 89.00,-16.81 91.72,-15.83 94.44,-14.85 96.11,-14.52 97.79,-14.18 99.40,-14.40 101.01,-14.62 101.93,-15.43 102.85,-16.23 103.48,-17.10 104.12,-17.96 105.14,-18.81 106.16,-19.67 105.84,-18.50 105.51,-17.33 106.55,-16.23 107.59,-15.14 108.83,-14.31 110.07,-13.47 112.53,-12.14 115.00,-10.81 117.48,-9.61 119.97,-8.41 121.52,-7.98 123.06,-7.56 124.89,-7.46 126.71,-7.36 127.83,-7.65 128.95,-7.95 127.63,-8.41 126.32,-8.87 124.13,-8.98 121.93,-9.09 120.84,-8.58 119.75,-8.07 119.45,-6.46 119.15,-4.85 119.01,-2.80 118.87,-0.76 118.86,0.32 118.84,1.40 121.00,1.70 123.16,1.99 123.67,0.80 124.19,-0.38 120.87,-3.08 117.56,-5.78 115.64,-7.39 113.72,-9.00 111.54,-10.56 109.37,-12.12 107.24,-12.73 105.11,-13.33 103.33,-13.59 101.54,-13.85 99.93,-13.92 98.33,-14.00 96.79,-14.00 95.26,-14.00 94.06,-13.96 92.86,-13.91 91.86,-13.39 90.86,-12.87 89.98,-12.21 89.10,-11.56 88.85,-9.62 88.60,-7.68 88.54,-5.43 88.47,-3.18 89.78,-1.78 91.10,-0.37 93.70,0.01 96.29,0.40 97.66,0.44 99.02,0.48 100.14,0.48 101.26,0.47 101.20,-0.95 101.14,-2.39 100.17,-3.62 99.20,-4.85 97.86,-6.45 96.53,-8.06 94.34,-8.99 92.15,-9.93 90.17,-10.23 88.19,-10.53 86.12,-10.73 84.06,-10.94 82.59,-10.93 81.13,-10.93 79.93,-10.88 78.74,-10.83 77.10,-10.84 75.47,-10.85 73.95,-10.15 72.44,-9.45 71.25,-7.77 70.06,-6.10 69.73,-4.72 69.40,-3.35 71.42,-3.27 73.44,-3.19 74.98,-2.98 76.52,-2.76 75.83,-1.76 75.15,-0.77 73.83,-1.56 72.52,-2.34 69.87,-3.74 67.22,-5.13 65.01,-6.04 62.80,-6.95 60.12,-7.95 57.45,-8.96 54.93,-9.68 52.41,-10.41 50.80,-10.64 49.18,-10.87 47.68,-10.92 46.18,-10.98 44.21,-10.23 42.25,-9.48 41.48,-8.20 40.71,-6.91 40.22,-5.94 39.73,-4.96 39.70,-3.57 39.68,-2.19 41.38,-1.16 43.09,-0.13 44.35,0.28 45.61,0.69 47.09,0.94 48.58,1.20 47.23,1.16 45.89,1.11 44.57,-0.44 43.25,-2.00 41.78,-3.16 40.31,-4.33 38.75,-5.47 37.19,-6.61 35.34,-7.34 33.49,-8.07 32.17,-8.67 30.84,-9.26 29.73,-9.38 28.62,-9.51 27.29,-9.57 25.96,-9.64 24.54,-9.66 23.11,-9.69 21.95,-9.66 20.78,-9.64 19.59,-8.96 18.40,-8.29 17.41,-7.46 16.42,-6.63 15.70,-5.30 14.98,-3.98 14.47,-2.93 13.97,-1.88 13.88,-0.24 13.79,1.38 15.39,1.08 16.99,0.77 19.39,1.38 21.78,2.00 23.58,2.25 25.39,2.51 27.85,2.71 30.31,2.90 32.80,3.02 35.30,3.14 36.93,3.12 38.56,3.10 39.02,1.38 39.48,-0.33 39.07,-1.56 38.67,-2.79 37.31,-4.36 35.96,-5.93 34.16,-8.24 32.35,-10.55 31.27,-11.74 30.18,-12.93 28.48,-14.25 26.78,-15.56 25.15,-16.73 23.52,-17.91 22.38,-18.23 21.24,-18.56 19.62,-18.65 18.01,-18.74 18.93,-18.02 19.86,-17.31 21.61,-16.00 23.37,-14.70 24.69,-13.92 26.00,-13.15 28.20,-12.82 30.41,-12.48 32.32,-12.29 34.22,-12.10 36.45,-11.96 38.68,-11.82 41.06,-11.74 43.45,-11.66 45.73,-12.16 48.02,-12.66 49.35,-13.00 50.68,-13.34 51.93,-14.88 53.18,-16.42 53.80,-18.31 54.43,-20.19 54.48,-21.31 54.53,-22.43 54.53,-24.75 54.52,-27.07 54.49,-28.20 54.46,-29.33 53.97,-30.39 53.48,-31.44 54.31,-30.70 55.15,-29.96 54.99,-28.79 54.84,-27.63 57.10,-26.20 59.36,-24.78 60.74,-24.38 62.13,-23.99 64.34,-23.69 66.56,-23.39 68.70,-23.21 70.83,-23.02 72.61,-22.98 74.38,-22.95 76.57,-22.85 78.76,-22.76 80.22,-22.81 81.69,-22.85 82.58,-23.49 83.48,-24.13 82.85,-25.06 82.22,-25.98 81.35,-27.65 80.48,-29.33 79.18,-30.77 77.88,-32.22 75.70,-33.69 73.53,-35.17 71.98,-36.10 70.42,-37.02 68.75,-37.66 67.08,-38.31 65.33,-38.57 63.58,-38.84 62.23,-38.88 60.89,-38.93 59.76,-38.90 58.63,-38.87 57.01,-38.88 55.40,-38.89 53.20,-38.81 51.01,-38.72 51.70,-37.74 52.40,-36.77 53.87,-35.78 55.34,-34.79 57.34,-33.96 59.34,-33.13 61.63,-32.43 63.92,-31.73 66.51,-31.41 69.10,-31.10 71.38,-30.93 73.65,-30.77 76.05,-30.68 78.45,-30.59 81.48,-30.54 84.51,-30.49 86.66,-30.46 88.81,-30.43 91.45,-30.41 94.09,-30.40 96.08,-30.42 98.06,-30.44 99.45,-30.53 100.83,-30.62 101.33,-31.66 101.83,-32.69 100.39,-32.05 98.94,-31.40 97.81,-31.39 96.67,-31.37 95.38,-31.08 94.10,-30.80 94.04,-29.43 93.99,-28.06 93.90,-25.96 93.82,-23.85 94.04,-22.73 94.26,-21.60 95.54,-19.68 96.81,-17.76 98.47,-16.68 100.13,-15.60 101.73,-14.82 103.32,-14.04 105.57,-13.39 107.83,-12.73 110.45,-12.42 113.07,-12.10 114.11,-11.06 115.15,-10.01 113.88,-10.92 112.61,-11.83 110.52,-13.14 108.43,-14.45 106.13,-15.61 103.82,-16.78 101.16,-17.86 98.49,-18.94 96.04,-19.39 93.59,-19.83 91.40,-20.05 89.21,-20.26 86.85,-20.36 84.49,-20.45 82.90,-20.40 81.32,-20.35 79.50,-20.34 77.68,-20.32 75.72,-19.69 73.77,-19.06 72.94,-18.14 72.12,-17.22 71.38,-15.51 70.64,-13.81 70.28,-12.61 69.91,-11.41 69.77,-9.80 69.63,-8.18 70.14,-7.20 70.64,-6.22 73.02,-4.90 75.41,-3.57 77.02,-3.16 78.62,-2.74 79.68,-2.62 80.74,-2.51 82.01,-2.91 83.28,-3.32 82.98,-4.54 82.67,-5.76 82.07,-7.38 81.48,-8.99 79.77,-9.87 78.06,-10.76 76.78,-10.84 75.50,-10.92 74.21,-10.98 72.92,-11.03 70.57,-11.08 68.23,-11.14 66.38,-11.12 64.53,-11.09 62.70,-10.16 60.87,-9.22 59.56,-8.13 58.25,-7.04 58.17,-5.60 58.08,-4.15 59.73,-2.86 61.38,-1.56 63.08,-0.51 64.77,0.52 66.99,1.55 69.22,2.58 71.90,3.65 74.57,4.73 76.57,5.51 78.56,6.29 80.96,6.60 83.36,6.92 85.00,7.00 86.65,7.07 87.91,7.04 89.16,7.01 90.34,6.71 91.53,6.41 94.93,5.11 98.34,3.81 98.71,3.76 99.07,3.72 99.43,3.79 99.80,3.86 100.12,4.04 100.44,4.23 100.68,4.50 100.92,4.78 101.07,5.12 101.21,5.46 101.24,5.83 101.27,6.20 101.17,6.55 101.08,6.91 100.88,7.22 100.68,7.53 100.39,7.76 100.10,7.99 99.76,8.11 99.41,8.24 99.04,8.24 98.67,8.25 98.32,8.14 97.97,8.03 97.67,7.81 97.37,7.60 97.16,7.29 96.95,6.99 96.84,6.64 96.73,6.29 96.75,5.92 96.76,5.55 96.89,5.20 97.02,4.86 97.25,4.57 97.48,4.29 97.80,4.09 98.11,3.89 98.47,3.81 98.83,3.72 99.19,3.75 99.56,3.79 99.90,3.94 100.24,4.08 100.51,4.33 100.78,4.58 100.96,4.90 101.14,5.22 101.21,5.59 101.27,5.95 101.22,6.31 101.17,6.68 101.00,7.01 100.84,7.34 100.57,7.60 100.31,7.86 99.98,8.02 99.65,8.18 99.65,8.18 99.65,8.18 97.11,8.87 94.57,9.56 93.44,9.96 92.30,10.36 90.66,10.59 89.02,10.82 87.71,10.68 86.39,10.54 84.68,10.36 82.98,10.18 80.20,9.90 77.42,9.62 75.35,8.99 73.28,8.36 70.45,7.46 67.63,6.57 65.02,5.68 62.41,4.79 60.85,4.03 59.29,3.26 56.91,2.21 54.53,1.17 53.32,-1.71 52.11,-4.59 52.22,-5.70 52.32,-6.80 52.68,-8.09 53.04,-9.38 53.72,-10.34 54.40,-11.29 55.45,-12.22 56.51,-13.14 57.47,-13.74 58.42,-14.34 59.56,-14.89 60.71,-15.45 62.52,-16.17 64.33,-16.89 66.28,-16.87 68.24,-16.84 70.64,-16.86 73.04,-16.88 74.44,-16.88 75.84,-16.89 78.10,-16.54 80.35,-16.20 81.81,-15.63 83.26,-15.05 84.79,-13.25 86.33,-11.45 87.13,-9.06 87.93,-6.68 88.12,-4.99 88.30,-3.31 87.84,-2.00 87.37,-0.70 86.53,0.10 85.69,0.92 84.08,1.56 82.47,2.21 81.22,2.08 79.98,1.95 78.82,1.69 77.66,1.43 75.41,0.96 73.16,0.49 71.34,-0.34 69.51,-1.19 68.18,-1.95 66.85,-2.71 65.73,-4.39 64.62,-6.08 64.62,-7.36 64.62,-8.65 65.09,-10.77 65.55,-12.89 66.65,-15.17 67.74,-17.45 68.48,-18.75 69.23,-20.04 70.67,-21.33 72.11,-22.63 73.81,-23.23 75.51,-23.83 76.61,-23.73 77.71,-23.62 79.55,-23.58 81.39,-23.54 82.99,-23.42 84.59,-23.30 87.02,-23.23 89.45,-23.17 91.78,-23.00 94.10,-22.83 96.86,-22.37 99.62,-21.92 102.45,-20.88 105.28,-19.85 107.78,-18.74 110.28,-17.63 112.75,-16.29 115.21,-14.95 116.53,-13.68 117.86,-12.42 117.23,-10.59 116.60,-8.76 114.67,-8.71 112.74,-8.66 109.83,-8.88 106.91,-9.09 104.26,-9.67 101.61,-10.25 99.78,-11.02 97.95,-11.80 95.61,-13.03 93.27,-14.25 91.57,-16.00 89.88,-17.75 89.40,-19.16 88.92,-20.56 88.59,-22.27 88.27,-23.97 88.29,-25.34 88.32,-26.72 88.44,-27.87 88.55,-29.02 88.83,-30.32 89.11,-31.62 90.02,-33.25 90.93,-34.89 92.67,-35.75 94.41,-36.62 95.56,-36.61 96.71,-36.60 97.86,-36.56 99.02,-36.53 101.12,-36.37 103.23,-36.21 104.55,-34.86 105.87,-33.50 105.79,-32.38 105.72,-31.25 105.12,-30.12 104.53,-28.98 102.75,-28.18 100.97,-27.37 99.51,-27.46 98.06,-27.56 96.07,-27.58 94.09,-27.61 91.45,-27.59 88.80,-27.58 86.65,-27.57 84.49,-27.56 81.44,-27.55 78.38,-27.54 75.94,-27.55 73.49,-27.56 71.13,-27.62 68.77,-27.69 65.87,-27.91 62.98,-28.13 60.46,-28.69 57.95,-29.26 55.41,-30.05 52.88,-30.85 50.45,-32.33 48.02,-33.81 47.46,-36.42 46.90,-39.02 47.58,-40.52 48.26,-42.01 49.51,-42.63 50.77,-43.26 53.11,-43.14 55.46,-43.03 57.13,-43.00 58.81,-42.97 60.02,-42.83 61.22,-42.70 62.66,-42.49 64.10,-42.29 66.21,-41.97 68.31,-41.65 70.30,-40.92 72.28,-40.19 73.90,-39.24 75.53,-38.29 78.14,-36.71 80.76,-35.12 82.60,-33.42 84.43,-31.71 85.54,-30.04 86.65,-28.37 87.02,-26.69 87.38,-25.01 87.18,-23.65 86.99,-22.29 86.04,-21.33 85.09,-20.36 83.46,-19.76 81.83,-19.15 80.28,-19.21 78.73,-19.27 76.52,-19.21 74.31,-19.14 72.50,-19.18 70.69,-19.21 68.46,-19.19 66.22,-19.17 63.56,-19.26 60.89,-19.34 58.92,-19.85 56.95,-20.36 54.60,-21.50 52.26,-22.63 50.73,-24.51 49.20,-26.40 49.15,-28.49 49.11,-30.58 49.27,-31.73 49.43,-32.87 50.18,-34.17 50.94,-35.46 53.44,-35.83 55.93,-36.20 57.40,-34.71 58.86,-33.23 59.18,-31.26 59.50,-29.29 59.46,-28.15 59.41,-27.00 59.37,-25.64 59.33,-24.28 59.23,-23.14 59.13,-22.00 58.96,-20.71 58.78,-19.42 57.66,-16.80 56.53,-14.17 55.43,-12.79 54.34,-11.42 52.85,-10.68 51.37,-9.95 50.04,-9.80 48.70,-9.66 46.07,-9.04 43.43,-8.41 41.01,-8.38 38.59,-8.35 36.27,-8.33 33.95,-8.32 31.92,-8.42 29.89,-8.52 26.88,-8.87 23.88,-9.22 22.42,-10.05 20.95,-10.89 18.87,-12.01 16.79,-13.14 15.38,-14.57 13.97,-16.01 13.83,-17.23 13.68,-18.46 14.02,-19.63 14.35,-20.81 15.10,-21.57 15.85,-22.33 17.94,-22.49 20.02,-22.65 21.28,-22.31 22.54,-21.97 23.97,-21.30 25.40,-20.64 27.10,-19.48 28.81,-18.33 30.90,-16.87 32.99,-15.40 34.05,-14.12 35.11,-12.84 37.01,-10.68 38.91,-8.53 40.85,-6.36 42.80,-4.19 43.39,-2.03 43.98,0.12 43.69,1.70 43.39,3.29 42.49,4.62 41.59,5.95 40.08,6.40 38.57,6.85 36.91,6.80 35.25,6.75 32.72,6.80 30.18,6.86 27.57,6.89 24.96,6.93 22.95,6.81 20.94,6.69 18.41,6.42 15.88,6.16 14.08,5.89 12.27,5.63 10.95,4.99 9.63,4.36 8.96,3.11 8.30,1.86 8.31,0.67 8.32,-0.50 8.48,-1.59 8.64,-2.69 9.34,-4.08 10.04,-5.47 10.73,-7.13 11.41,-8.79 12.34,-9.61 13.27,-10.42 14.78,-11.66 16.29,-12.90 17.33,-13.31 18.37,-13.72 19.56,-14.01 20.76,-14.29 22.00,-14.23 23.25,-14.17 24.77,-14.10 26.30,-14.03 27.85,-13.88 29.41,-13.72 31.04,-13.33 32.66,-12.94 33.72,-12.33 34.77,-11.71 37.17,-10.96 39.56,-10.20 41.22,-9.18 42.89,-8.17 44.93,-6.97 46.98,-5.77 48.53,-4.47 50.09,-3.18 51.09,-1.92 52.10,-0.67 52.38,0.90 52.67,2.47 52.08,3.87 51.50,5.26 50.28,5.91 49.06,6.56 47.93,6.51 46.80,6.46 45.41,6.23 44.03,6.00 41.98,5.28 39.93,4.55 38.33,4.19 36.73,3.84 35.80,2.80 34.87,1.76 34.71,-0.43 34.56,-2.63 34.71,-3.74 34.86,-4.85 35.67,-6.64 36.48,-8.43 37.26,-9.97 38.04,-11.51 39.19,-12.25 40.35,-12.99 43.41,-13.82 46.47,-14.64 48.12,-14.45 49.77,-14.26 51.51,-13.91 53.24,-13.56 55.91,-12.92 58.58,-12.27 61.34,-11.41 64.10,-10.54 66.56,-9.76 69.03,-8.98 71.97,-7.76 74.91,-6.53 77.28,-5.21 79.65,-3.89 79.73,-1.74 79.81,0.40 78.00,1.34 76.19,2.29 74.16,2.19 72.13,2.09 70.62,1.77 69.12,1.44 67.81,0.95 66.50,0.45 65.63,-0.74 64.75,-1.94 64.68,-3.68 64.60,-5.43 65.32,-7.16 66.03,-8.89 66.89,-10.04 67.75,-11.18 69.12,-12.47 70.50,-13.75 71.67,-14.17 72.84,-14.59 74.14,-14.85 75.44,-15.11 77.12,-15.11 78.81,-15.11 80.03,-15.02 81.24,-14.94 82.74,-14.85 84.24,-14.75 86.43,-14.76 88.63,-14.76 91.27,-14.58 93.91,-14.41 95.42,-13.79 96.92,-13.18 98.40,-12.32 99.87,-11.45 101.53,-10.04 103.18,-8.62 104.24,-7.37 105.29,-6.12 105.98,-4.22 106.67,-2.32 106.29,-0.07 105.92,2.17 105.03,3.32 104.13,4.47 102.70,4.96 101.28,5.45 100.06,5.40 98.84,5.35 97.41,5.28 95.98,5.22 93.80,5.17 91.63,5.12 90.20,4.71 88.77,4.31 87.35,3.64 85.93,2.97 85.06,2.12 84.19,1.27 83.91,-1.01 83.63,-3.30 83.82,-5.84 84.01,-8.38 84.31,-10.01 84.62,-11.63 85.48,-13.24 86.34,-14.84 87.79,-15.82 89.24,-16.79 91.02,-17.40 92.80,-18.01 94.09,-17.93 95.38,-17.84 96.98,-17.75 98.58,-17.65 100.31,-17.49 102.04,-17.33 104.03,-17.05 106.02,-16.77 108.73,-16.09 111.44,-15.41 113.88,-13.95 116.32,-12.50 118.48,-11.08 120.65,-9.65 123.69,-7.46 126.72,-5.28 128.21,-3.40 129.69,-1.52 129.76,-0.39 129.84,0.73 129.72,1.89 129.59,3.06 128.90,4.68 128.21,6.31 126.82,7.05 125.42,7.79 124.13,7.78 122.83,7.77 121.33,7.71 119.83,7.65 118.16,7.29 116.50,6.94 115.45,6.21 114.40,5.47 113.81,3.38 113.21,1.29 113.24,0.14 113.28,-0.99 113.49,-3.42 113.70,-5.84 114.13,-7.94 114.55,-10.04 115.78,-11.58 117.01,-13.11 118.18,-13.64 119.35,-14.17 120.65,-14.49 121.96,-14.81 123.37,-14.81 124.78,-14.80 125.96,-14.71 127.15,-14.62 129.66,-13.81 132.17,-12.99 132.98,-12.16 133.78,-11.34 134.14,-9.98 134.51,-8.62 134.19,-7.31 133.88,-6.00 133.17,-5.15 132.45,-4.29 131.45,-3.77 130.45,-3.24 128.39,-3.06 126.33,-2.89 125.22,-3.06 124.11,-3.23 123.06,-3.53 122.00,-3.83 120.22,-4.35 118.44,-4.88 115.79,-5.91 113.15,-6.94 110.30,-8.15 107.46,-9.36 105.67,-10.45 103.89,-11.54 101.88,-13.61 99.88,-15.69 99.61,-17.36 99.35,-19.03 99.90,-20.78 100.45,-22.53 101.57,-23.59 102.70,-24.65 103.77,-25.12 104.84,-25.60 106.07,-25.58 107.29,-25.55 108.84,-24.65 110.38,-23.76 110.49,-21.24 110.60,-18.72 109.00,-16.93 107.40,-15.13 106.36,-14.03 105.32,-12.94 103.65,-11.83 101.99,-10.73 100.61,-10.58 99.22,-10.43 98.14,-10.71 97.05,-10.99 95.24,-11.45 93.43,-11.91 90.66,-12.81 87.89,-13.71 85.40,-14.54 82.91,-15.36 79.63,-16.86 76.34,-18.35 74.65,-20.18 72.95,-22.00 71.10,-24.62 69.25,-27.24 68.79,-29.99 68.33,-32.74 68.44,-34.91 68.54,-37.09 68.99,-38.07 69.43,-39.06 70.72,-40.48 72.02,-41.91 73.80,-42.22 75.58,-42.53 76.63,-42.11 77.69,-41.69 78.65,-40.62 79.62,-39.56 80.44,-38.84 81.26,-38.13 82.16,-36.71 83.05,-35.29 83.36,-33.88 83.67,-32.46 83.61,-31.39 83.55,-30.31 83.44,-29.19 83.33,-28.06 82.86,-26.47 82.39,-24.89 81.45,-24.11 80.52,-23.34 79.20,-23.02 77.87,-22.70 76.39,-22.72 74.91,-22.74 73.52,-22.80 72.13,-22.86 70.18,-22.85 68.22,-22.84 66.38,-22.95 64.54,-23.06 62.01,-23.40 59.49,-23.74 57.72,-24.69 55.95,-25.64 54.90,-26.83 53.85,-28.02 53.47,-29.40 53.10,-30.78 53.35,-33.04 53.60,-35.30 54.44,-36.88 55.28,-38.45 57.85,-39.14 60.41,-39.83 62.23,-39.71 64.05,-39.58 65.54,-39.43 67.02,-39.28 68.34,-38.76 69.66,-38.24 70.70,-37.16 71.74,-36.08 72.11,-34.87 72.48,-33.65 72.35,-31.76 72.22,-29.87 72.15,-28.42 72.07,-26.97 71.52,-24.56 70.96,-22.15 70.13,-20.44 69.29,-18.74 68.32,-18.02 67.36,-17.31 65.53,-16.45 63.70,-15.60 61.04,-14.98 58.37,-14.35 55.21,-14.35 52.06,-14.34 49.42,-14.40 46.77,-14.46 43.02,-14.82 39.26,-15.18 37.06,-16.14 34.87,-17.09 33.71,-18.13 32.55,-19.18 31.45,-21.02 30.35,-22.87 30.35,-25.33 30.36,-27.79 31.13,-30.16 31.91,-32.53 32.92,-33.19 33.94,-33.85 35.45,-34.17 36.96,-34.49 38.56,-34.31 40.16,-34.13 41.67,-33.55 43.18,-32.98 44.03,-32.27 44.88,-31.56 45.99,-30.22 47.11,-28.87 48.34,-26.69 49.57,-24.52 50.19,-22.19 50.82,-19.86 50.60,-18.45 50.39,-17.03 49.97,-14.99 49.55,-12.96 48.64,-11.35 47.73,-9.75 46.26,-8.11 44.78,-6.48 43.31,-5.91 41.84,-5.35 39.77,-4.59 37.71,-3.83 35.22,-3.48 32.72,-3.13 30.47,-3.09 28.22,-3.05 26.37,-3.21 24.53,-3.38 22.02,-3.85 19.52,-4.32 17.69,-5.67 15.86,-7.01 15.11,-8.63 14.36,-10.26 14.38,-11.32 14.39,-12.39 14.37,-14.04 14.34,-15.69 14.42,-16.82 14.51,-17.95 14.68,-19.21 14.86,-20.47 15.36,-22.18 15.86,-23.90 17.86,-25.49 19.86,-27.08 21.45,-26.59 23.03,-26.11 23.60,-23.99 24.16,-21.87 24.10,-20.43 24.05,-19.00 23.94,-17.67 23.83,-16.35 23.69,-14.58 23.56,-12.81 23.31,-10.64 23.06,-8.48 22.33,-6.20 21.60,-3.93 20.81,-2.96 20.03,-1.99 19.15,-0.48 18.28,1.03 17.10,2.17 15.92,3.31 13.98,4.48 12.05,5.65 10.17,5.94 8.28,6.22 6.37,6.14 4.46,6.06 2.52,5.44 0.58,4.82 -0.13,3.94 -0.86,3.06 -1.39,2.17 -1.92,1.28 -2.05,1.03 -2.17,0.78 -2.24,0.51 -2.30,0.24 -2.29,-0.03 -2.29,-0.31 -2.22,-0.58 -2.15,-0.85 -2.01,-1.10 -1.88,-1.34 -1.69,-1.55 -1.50,-1.75 -1.27,-1.91 -1.04,-2.06 -0.78,-2.16 -0.51,-2.25 -0.24,-2.28 0.03,-2.31 0.31,-2.27 0.59,-2.23 0.84,-2.13 1.10,-2.03 1.33,-1.87 1.56,-1.70 1.74,-1.49 1.92,-1.28 1.92,-1.28 L 1.92,-1.28 Z"></path></g><g transform="translate(16 117) rotate(0 65 -3.5)" stroke="none"><path fill="#ffd43b" d="M 0,-2.40 Q 0,-2.40 1.43,-2.40 2.87,-2.41 4.06,-2.44 5.24,-2.48 6.32,-2.51 7.40,-2.55 9.73,-2.59 12.06,-2.63 13.56,-2.83 15.06,-3.03 16.19,-3.41 17.32,-3.79 18.63,-4.03 19.94,-4.28 21.71,-4.33 23.47,-4.37 24.77,-4.42 26.06,-4.47 27.77,-4.44 29.48,-4.40 31.06,-4.39 32.64,-4.38 34.58,-5.06 36.51,-5.74 39.04,-5.84 41.58,-5.93 42.81,-6.05 44.05,-6.18 45.91,-6.40 47.76,-6.61 49.54,-6.75 51.32,-6.89 52.95,-6.96 54.58,-7.04 56.13,-7.08 57.69,-7.13 59.21,-7.15 60.73,-7.18 63.01,-7.90 65.30,-8.62 67.25,-8.79 69.20,-8.97 70.56,-9.09 71.92,-9.20 74.26,-9.10 76.59,-9.00 79.01,-8.92 81.43,-8.83 83.03,-8.88 84.63,-8.92 86.74,-8.84 88.86,-8.76 90.91,-8.72 92.96,-8.68 94.41,-8.76 95.86,-8.83 97.62,-8.84 99.39,-8.85 101.00,-8.89 102.61,-8.93 103.87,-8.99 105.13,-9.06 106.86,-9.09 108.59,-9.11 110.10,-8.88 111.62,-8.66 112.94,-8.32 114.27,-7.99 115.41,-7.55 116.55,-7.10 117.49,-6.56 118.43,-6.01 119.64,-5.47 120.85,-4.93 122.39,-3.99 123.94,-3.05 125.14,-3.12 126.34,-3.19 128.18,-3.18 130.03,-3.17 130.54,-3.09 131.04,-3.00 131.49,-2.75 131.95,-2.50 132.30,-2.13 132.65,-1.75 132.86,-1.28 133.07,-0.81 133.12,-0.30 133.17,0.20 133.05,0.70 132.94,1.20 132.67,1.64 132.40,2.08 132.00,2.41 131.60,2.74 131.12,2.92 130.64,3.11 130.13,3.13 129.62,3.15 129.12,3.01 128.63,2.87 128.21,2.57 127.78,2.28 127.48,1.87 127.17,1.45 127.01,0.96 126.85,0.47 126.86,-0.03 126.86,-0.54 127.03,-1.03 127.20,-1.52 127.52,-1.92 127.83,-2.33 128.26,-2.61 128.69,-2.89 129.19,-3.03 129.69,-3.16 130.20,-3.13 130.71,-3.09 131.19,-2.90 131.66,-2.70 132.05,-2.36 132.44,-2.03 132.70,-1.58 132.96,-1.14 133.07,-0.64 133.17,-0.13 133.11,0.37 133.05,0.88 132.83,1.34 132.61,1.81 132.25,2.18 131.89,2.55 131.43,2.78 130.98,3.02 130.47,3.10 129.96,3.17 129.96,3.17 129.96,3.17 127.99,3.14 126.02,3.11 124.62,2.95 123.23,2.79 121.70,2.15 120.17,1.52 118.68,0.45 117.19,-0.61 115.83,-1.37 114.46,-2.13 112.89,-2.81 111.32,-3.48 109.42,-4.18 107.52,-4.88 106.32,-4.90 105.13,-4.93 103.87,-5.00 102.61,-5.06 101.00,-5.10 99.39,-5.13 97.62,-5.15 95.86,-5.16 94.41,-5.23 92.97,-5.31 90.92,-5.26 88.87,-5.22 86.75,-5.14 84.64,-5.05 83.04,-5.09 81.45,-5.12 79.05,-5.01 76.65,-4.89 74.42,-4.73 72.18,-4.57 70.92,-4.54 69.65,-4.50 68.13,-4.33 66.61,-4.16 65.17,-3.74 63.73,-3.33 62.26,-3.06 60.78,-2.78 59.27,-2.79 57.76,-2.79 56.25,-2.79 54.73,-2.78 53.20,-2.74 51.66,-2.70 50.05,-2.57 48.44,-2.43 46.39,-2.01 44.33,-1.59 43.13,-1.57 41.93,-1.54 40.07,-1.29 38.21,-1.03 36.96,-0.61 35.71,-0.19 34.19,0.10 32.68,0.39 31.10,0.42 29.52,0.44 27.85,0.51 26.18,0.57 24.94,0.58 23.70,0.59 21.26,0.79 18.83,1.00 17.36,1.44 15.90,1.88 13.99,2.25 12.08,2.63 9.74,2.59 7.40,2.55 6.32,2.51 5.24,2.48 4.06,2.44 2.87,2.41 1.43,2.40 0,2.40 -0.28,2.36 -0.57,2.33 -0.84,2.23 -1.11,2.12 -1.35,1.96 -1.59,1.79 -1.78,1.58 -1.97,1.36 -2.11,1.10 -2.24,0.85 -2.31,0.57 -2.38,0.28 -2.38,-0.00 -2.38,-0.28 -2.31,-0.57 -2.24,-0.85 -2.11,-1.10 -1.97,-1.36 -1.78,-1.58 -1.59,-1.79 -1.35,-1.96 -1.11,-2.12 -0.84,-2.23 -0.57,-2.33 -0.28,-2.36 0.00,-2.40 0.00,-2.40 L 0,-2.40 Z"></path></g><g transform="translate(133 117) rotate(0 -50.5 14.5)" stroke="none"><path fill="#ffd43b" d="M -0.49,2.45 Q -0.49,2.45 -1.92,2.16 -3.36,1.86 -4.69,1.75 -6.02,1.64 -8.11,1.63 -10.19,1.62 -11.47,1.96 -12.75,2.29 -13.07,2.24 -13.40,2.20 -13.70,2.08 -14.00,1.97 -14.27,1.78 -14.54,1.59 -14.75,1.34 -14.97,1.10 -15.12,0.81 -15.27,0.52 -15.34,0.20 -15.42,-0.11 -15.42,-0.44 -15.41,-0.76 -15.33,-1.08 -15.25,-1.40 -15.10,-1.69 -14.94,-1.97 -14.72,-2.22 -14.51,-2.46 -14.23,-2.64 -13.96,-2.83 -13.66,-2.94 -13.35,-3.05 -13.03,-3.09 -12.70,-3.13 -10.36,-2.62 -8.02,-2.12 -6.62,-1.66 -5.22,-1.19 -4.01,-1.04 -2.80,-0.88 -1.42,-0.79 -0.04,-0.70 1.54,-0.30 3.14,0.08 2.12,1.62 1.11,3.16 -1.14,2.52 -3.40,1.88 -5.01,1.74 -6.63,1.60 -9.02,1.42 -11.42,1.23 -13.31,1.16 -15.20,1.09 -16.30,1.15 -17.39,1.21 -19.44,1.32 -21.49,1.43 -22.68,1.74 -23.86,2.05 -24.39,3.23 -24.92,4.40 -25.02,5.66 -25.13,6.92 -23.49,8.29 -21.86,9.67 -20.33,10.25 -18.79,10.82 -16.88,11.16 -14.97,11.49 -13.51,11.57 -12.06,11.64 -10.32,11.72 -8.58,11.79 -6.71,11.87 -4.84,11.94 -4.29,10.93 -3.74,9.92 -3.67,8.35 -3.61,6.79 -6.26,5.19 -8.92,3.58 -10.51,2.86 -12.09,2.14 -13.53,1.87 -14.97,1.60 -16.16,1.53 -17.35,1.45 -18.96,1.38 -20.57,1.31 -22.83,1.36 -25.10,1.42 -26.26,1.68 -27.42,1.94 -29.00,3.14 -30.59,4.34 -31.57,5.45 -32.55,6.56 -32.90,8.03 -33.25,9.49 -31.95,9.77 -30.66,10.05 -28.32,10.12 -25.97,10.20 -23.69,10.25 -21.41,10.30 -20.47,9.67 -19.52,9.05 -18.79,7.61 -18.06,6.17 -20.39,5.18 -22.72,4.18 -24.50,3.22 -26.29,2.27 -28.18,1.89 -30.07,1.50 -31.52,1.39 -32.97,1.28 -34.98,1.13 -36.98,0.98 -38.71,0.97 -40.44,0.95 -41.75,1.00 -43.07,1.06 -44.48,1.09 -45.90,1.13 -46.95,1.78 -47.99,2.43 -48.61,4.03 -49.22,5.62 -49.29,6.81 -49.36,7.99 -49.38,9.15 -49.40,10.32 -49.27,12.21 -49.13,14.11 -48.01,14.75 -46.90,15.40 -45.44,16.49 -43.99,17.59 -42.20,18.31 -40.41,19.03 -38.45,19.70 -36.49,20.37 -35.14,20.54 -33.79,20.72 -31.86,20.87 -29.93,21.03 -27.65,21.14 -25.37,21.26 -23.82,21.21 -22.27,21.17 -21.90,21.12 -21.52,21.06 -21.29,21.09 -21.06,21.12 -20.85,21.21 -20.63,21.29 -20.45,21.43 -20.26,21.56 -20.11,21.74 -19.95,21.91 -19.85,22.12 -19.74,22.32 -19.69,22.55 -19.64,22.78 -19.64,23.01 -19.65,23.24 -19.70,23.46 -19.76,23.69 -19.87,23.89 -19.98,24.09 -20.14,24.26 -20.29,24.44 -20.49,24.56 -20.68,24.69 -20.89,24.77 -21.11,24.85 -21.34,24.88 -21.57,24.90 -22.89,24.95 -24.21,25.00 -26.45,24.91 -28.69,24.82 -30.21,24.87 -31.74,24.92 -32.96,24.99 -34.19,25.07 -35.35,25.02 -36.52,24.98 -34.11,25.22 -31.69,25.46 -30.34,25.47 -28.99,25.48 -27.47,25.28 -25.94,25.07 -24.74,24.82 -23.53,24.57 -23.68,23.10 -23.82,21.62 -24.90,20.15 -25.97,18.67 -27.73,16.94 -29.50,15.20 -30.91,14.60 -32.31,14.00 -34.17,13.02 -36.03,12.04 -37.75,11.70 -39.47,11.35 -40.55,11.28 -41.63,11.21 -43.74,11.23 -45.84,11.24 -47.75,12.31 -49.66,13.38 -50.41,14.91 -51.16,16.43 -51.33,18.01 -51.51,19.59 -51.26,21.21 -51.01,22.84 -50.08,23.43 -49.16,24.02 -46.48,24.26 -43.80,24.50 -42.41,24.52 -41.02,24.54 -39.01,24.67 -36.99,24.80 -34.98,24.89 -32.97,24.98 -31.89,24.93 -30.81,24.88 -29.71,23.95 -28.61,23.02 -29.79,21.31 -30.97,19.60 -32.19,18.53 -33.40,17.45 -35.99,16.14 -38.58,14.82 -41.63,13.93 -44.68,13.04 -47.45,12.32 -50.22,11.61 -52.46,11.29 -54.71,10.98 -56.26,10.94 -57.80,10.89 -59.02,10.93 -60.23,10.97 -61.60,11.01 -62.96,11.05 -64.16,11.32 -65.36,11.60 -66.65,12.94 -67.95,14.29 -68.13,16.02 -68.31,17.75 -68.36,18.96 -68.41,20.17 -68.55,22.12 -68.70,24.07 -68.05,25.50 -67.40,26.92 -66.50,28.25 -65.60,29.58 -63.63,29.92 -61.66,30.27 -60.59,30.32 -59.51,30.38 -57.94,30.45 -56.38,30.53 -55.04,30.29 -53.71,30.06 -52.68,29.69 -51.64,29.32 -51.71,28.10 -51.78,26.88 -53.54,24.18 -55.30,21.47 -56.64,20.07 -57.98,18.66 -61.16,17.58 -64.34,16.49 -68.30,15.66 -72.27,14.83 -74.63,14.14 -76.99,13.45 -79.64,12.87 -82.29,12.30 -84.52,12.05 -86.74,11.79 -88.27,11.78 -89.80,11.77 -91.44,12.03 -93.09,12.30 -94.26,12.72 -95.43,13.15 -96.88,14.47 -98.33,15.79 -98.35,16.92 -98.38,18.06 -97.10,18.60 -95.83,19.14 -93.58,19.99 -91.34,20.85 -90.02,21.08 -88.70,21.31 -86.81,21.52 -84.91,21.73 -83.21,21.79 -81.50,21.85 -80.28,21.59 -79.06,21.33 -79.39,20.24 -79.71,19.15 -79.65,17.74 -79.58,16.33 -81.41,13.84 -83.23,11.36 -84.91,9.67 -86.59,7.99 -88.07,7.06 -89.55,6.12 -91.47,4.40 -93.38,2.67 -95.12,1.78 -96.85,0.88 -98.16,0.59 -99.46,0.31 -101.18,-0.83 -102.89,-1.98 -103.85,-2.35 -104.81,-2.71 -104.99,-2.88 -105.17,-3.04 -105.30,-3.24 -105.44,-3.44 -105.52,-3.67 -105.60,-3.89 -105.63,-4.13 -105.66,-4.37 -105.62,-4.61 -105.59,-4.85 -105.50,-5.07 -105.41,-5.30 -105.27,-5.50 -105.13,-5.69 -104.95,-5.85 -104.77,-6.01 -104.55,-6.12 -104.34,-6.23 -104.10,-6.28 -103.87,-6.33 -103.63,-6.33 -103.39,-6.33 -103.15,-6.27 -102.92,-6.21 -102.71,-6.09 -102.50,-5.98 -100.67,-4.52 -98.85,-3.05 -95.40,-2.08 -91.95,-1.10 -89.27,-0.35 -86.59,0.39 -81.00,0.71 -75.41,1.02 -69.83,1.18 -64.25,1.33 -60.72,1.41 -57.20,1.49 -53.69,1.52 -50.18,1.56 -48.22,1.30 -46.26,1.03 -45.28,0.03 -44.31,-0.96 -44.10,-1.03 -43.89,-1.10 -43.67,-1.11 -43.45,-1.13 -43.24,-1.09 -43.02,-1.05 -42.82,-0.97 -42.62,-0.88 -42.45,-0.75 -42.27,-0.61 -42.14,-0.44 -42.00,-0.27 -41.91,-0.07 -41.82,0.12 -41.78,0.33 -41.73,0.55 -41.75,0.77 -41.76,0.99 -41.82,1.20 -41.88,1.41 -42.00,1.59 -42.11,1.78 -42.26,1.94 -42.41,2.09 -42.60,2.21 -42.79,2.32 -44.12,2.19 -45.44,2.05 -47.15,2.17 -48.85,2.29 -48.55,3.93 -48.26,5.57 -46.71,6.50 -45.17,7.42 -43.19,8.47 -41.21,9.51 -39.52,10.24 -37.84,10.96 -35.91,11.30 -33.97,11.64 -32.24,11.76 -30.51,11.89 -29.20,11.88 -27.89,11.86 -25.63,11.98 -23.37,12.11 -21.25,12.19 -19.13,12.27 -17.99,12.19 -16.85,12.12 -16.12,11.28 -15.39,10.45 -18.31,10.14 -21.23,9.84 -24.29,9.55 -27.35,9.25 -29.55,9.08 -31.76,8.91 -34.02,9.09 -36.29,9.28 -38.62,9.89 -40.95,10.50 -43.14,11.04 -45.34,11.57 -46.59,12.59 -47.84,13.61 -49.26,15.11 -50.68,16.61 -51.24,18.12 -51.81,19.62 -51.81,20.82 -51.82,22.01 -51.93,23.14 -52.05,24.27 -49.60,25.88 -47.15,27.49 -45.74,28.22 -44.34,28.95 -42.10,29.92 -39.86,30.89 -37.87,31.30 -35.89,31.72 -34.18,31.86 -32.47,31.99 -31.16,31.98 -29.86,31.97 -30.97,30.91 -32.09,29.86 -35.66,28.09 -39.24,26.33 -42.75,24.96 -46.26,23.60 -50.93,21.83 -55.61,20.07 -60.68,18.75 -65.75,17.43 -68.81,16.55 -71.87,15.67 -75.23,14.41 -78.59,13.15 -81.87,12.65 -85.15,12.15 -87.15,11.94 -89.15,11.73 -90.56,11.74 -91.98,11.76 -93.14,11.82 -94.30,11.88 -94.43,14.00 -94.55,16.12 -93.53,17.88 -92.51,19.64 -91.62,20.63 -90.73,21.61 -88.23,22.49 -85.73,23.37 -81.63,24.78 -77.54,26.18 -73.81,27.39 -70.07,28.60 -65.47,29.11 -60.88,29.62 -57.73,29.87 -54.59,30.12 -52.68,30.20 -50.77,30.27 -49.11,30.25 -47.44,30.24 -44.71,30.17 -41.98,30.10 -41.67,30.15 -41.37,30.21 -41.10,30.35 -40.83,30.50 -40.63,30.72 -40.42,30.95 -40.29,31.23 -40.16,31.51 -40.13,31.81 -40.10,32.12 -40.17,32.41 -40.24,32.71 -40.40,32.97 -40.56,33.24 -40.80,33.43 -41.03,33.63 -41.32,33.74 -41.61,33.85 -41.91,33.86 -42.22,33.88 -42.51,33.79 -42.81,33.71 -43.06,33.53 -43.31,33.36 -43.49,33.11 -43.68,32.87 -43.77,32.57 -43.87,32.28 -43.86,31.98 -43.86,31.67 -43.76,31.38 -43.66,31.09 -43.47,30.85 -43.28,30.61 -43.03,30.44 -42.77,30.27 -42.48,30.19 -42.18,30.11 -41.87,30.13 -41.57,30.15 -41.29,30.27 -41.00,30.38 -40.77,30.58 -40.54,30.78 -40.38,31.05 -40.23,31.31 -40.17,31.61 -40.10,31.91 -40.14,32.22 -40.18,32.52 -40.31,32.80 -40.44,33.07 -40.65,33.29 -40.86,33.51 -41.14,33.66 -41.41,33.80 -41.71,33.84 -42.01,33.89 -42.01,33.89 -42.01,33.89 -44.77,33.77 -47.52,33.64 -49.21,33.55 -50.91,33.46 -52.85,33.36 -54.79,33.27 -58.00,33.11 -61.21,32.95 -66.15,32.51 -71.09,32.06 -74.91,31.02 -78.73,29.97 -82.94,28.78 -87.16,27.59 -90.68,26.42 -94.19,25.25 -95.29,24.12 -96.39,22.99 -97.59,21.56 -98.78,20.12 -99.07,18.07 -99.36,16.02 -99.31,14.67 -99.25,13.33 -98.60,11.20 -97.95,9.08 -96.07,8.65 -94.18,8.23 -92.97,8.37 -91.76,8.51 -90.30,8.71 -88.84,8.91 -86.79,9.14 -84.73,9.37 -81.17,9.91 -77.61,10.44 -74.35,11.62 -71.08,12.80 -68.04,13.61 -64.99,14.41 -59.74,15.69 -54.49,16.98 -49.77,18.63 -45.05,20.28 -41.33,21.55 -37.62,22.82 -33.66,24.54 -29.70,26.26 -27.14,28.03 -24.58,29.80 -24.32,31.11 -24.06,32.42 -24.70,33.69 -25.34,34.96 -26.46,35.48 -27.58,35.99 -28.82,35.90 -30.07,35.81 -31.43,35.66 -32.79,35.51 -34.65,35.31 -36.50,35.11 -38.85,34.75 -41.19,34.39 -43.72,33.52 -46.25,32.64 -47.97,31.76 -49.68,30.87 -51.38,29.73 -53.09,28.59 -54.48,27.16 -55.88,25.74 -55.85,23.72 -55.83,21.69 -55.16,19.16 -54.49,16.62 -53.68,15.60 -52.87,14.59 -51.28,12.84 -49.70,11.10 -47.93,9.91 -46.17,8.71 -43.98,8.09 -41.79,7.48 -39.22,6.72 -36.64,5.97 -34.14,5.65 -31.63,5.33 -29.37,5.33 -27.10,5.33 -23.71,5.43 -20.31,5.54 -17.89,5.92 -15.48,6.30 -13.55,7.73 -11.62,9.15 -11.79,11.13 -11.96,13.12 -12.78,13.87 -13.59,14.62 -15.12,15.24 -16.66,15.86 -17.90,15.78 -19.14,15.69 -21.27,15.76 -23.40,15.82 -25.73,15.90 -28.05,15.97 -29.41,15.85 -30.78,15.74 -32.63,15.62 -34.48,15.49 -36.93,15.26 -39.37,15.02 -41.21,14.38 -43.05,13.74 -45.32,12.94 -47.58,12.14 -49.70,11.01 -51.82,9.88 -52.41,8.96 -52.99,8.04 -53.33,6.83 -53.67,5.63 -53.52,3.59 -53.37,1.55 -52.94,0.33 -52.52,-0.89 -51.56,-1.51 -50.61,-2.13 -48.84,-2.10 -47.06,-2.07 -45.69,-1.52 -44.31,-0.96 -44.10,-1.03 -43.89,-1.10 -43.67,-1.11 -43.45,-1.13 -43.24,-1.09 -43.02,-1.05 -42.82,-0.97 -42.62,-0.88 -42.45,-0.75 -42.27,-0.61 -42.14,-0.44 -42.00,-0.27 -41.91,-0.07 -41.82,0.12 -41.78,0.33 -41.73,0.55 -41.75,0.77 -41.76,0.99 -41.82,1.20 -41.88,1.40 -42.00,1.59 -42.11,1.78 -42.26,1.94 -42.41,2.09 -42.60,2.21 -42.79,2.32 -43.17,2.68 -43.55,3.04 -44.70,3.41 -45.85,3.78 -48.02,4.07 -50.20,4.36 -53.72,4.35 -57.24,4.35 -60.78,4.31 -64.31,4.28 -69.94,4.18 -75.57,4.09 -81.48,3.81 -87.39,3.53 -90.11,2.88 -92.84,2.23 -96.69,1.26 -100.55,0.30 -102.68,-1.20 -104.81,-2.71 -104.99,-2.88 -105.17,-3.04 -105.30,-3.24 -105.44,-3.44 -105.52,-3.67 -105.60,-3.89 -105.63,-4.13 -105.66,-4.37 -105.62,-4.61 -105.59,-4.85 -105.50,-5.07 -105.41,-5.30 -105.27,-5.50 -105.13,-5.69 -104.95,-5.85 -104.77,-6.01 -104.55,-6.12 -104.34,-6.22 -104.10,-6.28 -103.87,-6.33 -103.63,-6.33 -103.39,-6.33 -103.15,-6.27 -102.92,-6.21 -102.71,-6.09 -102.50,-5.98 -101.64,-5.46 -100.79,-4.95 -99.59,-4.03 -98.40,-3.10 -96.90,-2.57 -95.41,-2.05 -93.27,-1.03 -91.13,-0.01 -89.34,1.42 -87.55,2.85 -85.72,3.93 -83.90,5.01 -81.85,6.72 -79.80,8.42 -77.82,10.56 -75.83,12.70 -75.15,14.44 -74.48,16.19 -74.57,18.86 -74.67,21.54 -75.06,22.75 -75.44,23.96 -76.25,24.72 -77.07,25.48 -78.28,25.83 -79.49,26.17 -80.56,26.08 -81.62,26.00 -83.38,25.96 -85.15,25.92 -87.35,25.90 -89.56,25.88 -91.14,25.56 -92.71,25.25 -94.57,24.82 -96.42,24.39 -98.31,24.12 -100.21,23.84 -101.35,22.88 -102.50,21.92 -102.80,19.55 -103.11,17.19 -102.79,15.99 -102.48,14.79 -100.76,13.08 -99.04,11.38 -97.81,10.53 -96.58,9.68 -95.07,9.33 -93.55,8.97 -91.57,8.74 -89.60,8.51 -88.02,8.70 -86.44,8.89 -84.07,9.11 -81.69,9.33 -78.92,9.86 -76.16,10.38 -73.89,10.95 -71.62,11.51 -67.40,12.26 -63.18,13.02 -59.27,14.32 -55.37,15.62 -53.57,17.11 -51.77,18.61 -49.78,20.92 -47.78,23.22 -47.28,26.16 -46.79,29.09 -47.37,30.70 -47.95,32.30 -48.98,33.08 -50.01,33.86 -51.46,34.29 -52.90,34.73 -54.69,35.03 -56.48,35.34 -58.21,35.33 -59.94,35.32 -61.20,35.17 -62.46,35.02 -64.14,34.69 -65.81,34.36 -67.49,33.45 -69.16,32.53 -70.14,31.23 -71.12,29.93 -72.16,28.28 -73.21,26.63 -73.20,25.32 -73.20,24.00 -73.28,21.95 -73.37,19.89 -73.27,18.44 -73.16,16.99 -72.90,15.71 -72.64,14.43 -71.92,12.78 -71.21,11.13 -70.11,10.17 -69.01,9.21 -67.67,8.39 -66.33,7.57 -64.63,7.29 -62.92,7.01 -61.50,7.09 -60.08,7.17 -58.81,7.31 -57.54,7.45 -55.94,7.64 -54.34,7.83 -51.90,8.07 -49.45,8.32 -46.60,8.91 -43.74,9.51 -40.31,10.34 -36.88,11.17 -33.70,12.57 -30.52,13.96 -28.97,15.21 -27.42,16.45 -25.89,18.33 -24.36,20.22 -24.24,22.08 -24.12,23.94 -24.84,25.24 -25.57,26.54 -26.53,27.18 -27.49,27.83 -29.03,28.47 -30.57,29.11 -31.77,29.05 -32.98,28.99 -35.00,29.07 -37.02,29.15 -39.08,29.25 -41.13,29.35 -42.56,29.31 -43.99,29.26 -46.09,29.29 -48.20,29.33 -49.79,29.02 -51.39,28.71 -52.68,27.87 -53.97,27.03 -54.86,25.59 -55.75,24.15 -56.01,22.75 -56.26,21.34 -56.14,20.26 -56.02,19.18 -55.88,17.23 -55.74,15.27 -55.04,13.32 -54.35,11.37 -53.31,10.54 -52.27,9.71 -50.54,8.54 -48.80,7.37 -47.29,7.10 -45.79,6.83 -43.43,7.04 -41.06,7.25 -39.92,7.50 -38.77,7.75 -36.60,8.16 -34.42,8.56 -32.54,9.35 -30.66,10.15 -28.66,11.01 -26.67,11.86 -24.50,13.56 -22.33,15.26 -20.72,17.08 -19.12,18.90 -18.84,20.50 -18.56,22.09 -18.75,23.64 -18.94,25.19 -19.77,26.56 -20.59,27.93 -21.60,28.41 -22.61,28.88 -23.89,29.31 -25.17,29.74 -27.11,30.09 -29.05,30.45 -30.44,30.42 -31.82,30.38 -33.81,30.43 -35.80,30.48 -37.36,30.12 -38.92,29.76 -39.71,28.89 -40.50,28.02 -40.72,26.66 -40.94,25.30 -40.37,23.96 -39.81,22.62 -38.59,21.82 -37.38,21.01 -35.78,20.97 -34.19,20.92 -32.96,21.00 -31.74,21.07 -30.21,21.12 -28.69,21.17 -26.45,21.08 -24.22,20.98 -22.87,21.02 -21.52,21.06 -21.29,21.09 -21.07,21.12 -20.85,21.21 -20.63,21.29 -20.45,21.43 -20.26,21.56 -20.11,21.74 -19.95,21.91 -19.85,22.12 -19.74,22.32 -19.69,22.55 -19.64,22.78 -19.64,23.01 -19.65,23.24 -19.70,23.46 -19.76,23.69 -19.87,23.89 -19.98,24.09 -20.14,24.26 -20.29,24.44 -20.49,24.56 -20.68,24.69 -20.89,24.77 -21.11,24.85 -21.34,24.88 -21.57,24.90 -21.94,24.83 -22.32,24.76 -23.88,24.68 -25.44,24.60 -27.78,24.62 -30.12,24.64 -32.29,24.58 -34.46,24.52 -35.99,24.18 -37.52,23.84 -39.63,23.31 -41.74,22.78 -44.12,22.03 -46.50,21.27 -48.10,20.25 -49.69,19.22 -51.69,17.59 -53.68,15.97 -54.11,14.16 -54.54,12.35 -54.49,11.22 -54.43,10.10 -54.35,8.84 -54.26,7.58 -54.08,5.78 -53.90,3.97 -53.47,2.99 -53.04,2.02 -52.11,0.52 -51.18,-0.98 -49.62,-2.04 -48.07,-3.11 -46.98,-3.11 -45.89,-3.12 -44.46,-3.07 -43.03,-3.02 -41.71,-2.94 -40.38,-2.87 -38.62,-2.83 -36.86,-2.79 -34.71,-2.81 -32.56,-2.83 -30.99,-2.64 -29.43,-2.45 -26.93,-2.13 -24.43,-1.81 -22.64,-1.09 -20.85,-0.37 -19.25,0.24 -17.64,0.86 -15.74,2.14 -13.83,3.42 -13.46,5.48 -13.09,7.55 -13.77,9.32 -14.46,11.09 -15.69,12.29 -16.93,13.49 -19.00,14.58 -21.07,15.68 -23.56,15.70 -26.06,15.73 -27.46,15.73 -28.86,15.72 -31.08,15.47 -33.30,15.22 -34.96,14.55 -36.61,13.88 -37.47,12.41 -38.32,10.95 -37.93,8.68 -37.55,6.40 -36.87,4.99 -36.18,3.58 -34.96,2.08 -33.74,0.59 -32.24,-0.63 -30.75,-1.87 -29.58,-2.32 -28.40,-2.78 -26.74,-3.08 -25.08,-3.39 -22.75,-3.26 -20.42,-3.14 -18.65,-3.10 -16.88,-3.06 -15.52,-2.87 -14.16,-2.68 -12.31,-2.32 -10.46,-1.96 -8.38,-1.21 -6.29,-0.46 -4.82,0.38 -3.35,1.23 -1.76,2.16 -0.16,3.09 0.64,4.88 1.46,6.66 1.20,8.90 0.94,11.13 0.26,12.66 -0.41,14.18 -1.44,14.83 -2.47,15.47 -3.63,15.73 -4.80,15.99 -6.74,16.03 -8.69,16.07 -10.52,16.06 -12.36,16.05 -13.90,15.93 -15.44,15.80 -17.86,15.66 -20.29,15.52 -22.19,14.99 -24.10,14.45 -25.66,13.73 -27.23,13.00 -28.69,11.56 -30.15,10.13 -30.35,8.34 -30.56,6.55 -30.46,4.75 -30.36,2.95 -29.87,1.62 -29.39,0.29 -28.44,-0.78 -27.49,-1.85 -26.50,-2.38 -25.52,-2.90 -23.50,-3.16 -21.49,-3.42 -19.43,-3.31 -17.36,-3.19 -16.27,-3.12 -15.17,-3.04 -13.26,-3.08 -11.35,-3.12 -8.86,-3.24 -6.38,-3.35 -4.62,-3.32 -2.86,-3.28 -0.53,-3.13 1.79,-2.98 3.45,-1.94 5.11,-0.90 5.57,0.20 6.03,1.30 4.44,3.16 2.85,5.02 1.26,4.74 -0.31,4.47 -1.89,4.41 -3.46,4.34 -5.14,4.13 -6.82,3.92 -8.16,3.52 -9.51,3.12 -11.13,2.70 -12.75,2.29 -13.07,2.24 -13.40,2.20 -13.70,2.08 -14.00,1.97 -14.27,1.78 -14.54,1.59 -14.75,1.34 -14.97,1.10 -15.12,0.81 -15.27,0.52 -15.34,0.20 -15.42,-0.11 -15.42,-0.44 -15.41,-0.76 -15.33,-1.08 -15.25,-1.40 -15.10,-1.68 -14.94,-1.97 -14.72,-2.22 -14.51,-2.46 -14.23,-2.64 -13.96,-2.83 -13.66,-2.94 -13.35,-3.05 -13.03,-3.09 -12.70,-3.13 -13.04,-3.10 -13.38,-3.07 -11.74,-3.31 -10.10,-3.56 -7.86,-3.42 -5.61,-3.28 -4.00,-3.15 -2.38,-3.01 -0.94,-2.73 0.49,-2.45 0.77,-2.36 1.06,-2.26 1.32,-2.10 1.57,-1.94 1.78,-1.73 1.99,-1.51 2.15,-1.25 2.30,-0.99 2.38,-0.70 2.47,-0.41 2.48,-0.11 2.50,0.19 2.44,0.48 2.38,0.78 2.25,1.05 2.12,1.33 1.93,1.56 1.74,1.80 1.50,1.98 1.26,2.16 0.98,2.28 0.70,2.40 0.40,2.45 0.11,2.50 -0.19,2.48 -0.49,2.45 -0.49,2.45 L -0.49,2.45 Z"></path></g><g transform="translate(20 76) rotate(0 68 7.5)" stroke="none"><path fill="#eaddd7" d="M 2.38,0 Q 2.38,0 2.34,1.72 2.30,3.44 2.23,5.33 2.16,7.21 2.22,8.30 2.29,9.39 2.27,11.00 2.26,12.61 2.21,14.45 2.16,16.28 3.10,17.21 4.03,18.14 7.21,18.41 10.39,18.68 13.48,17.99 16.57,17.30 19.07,16.48 21.58,15.67 25.18,13.94 28.79,12.21 30.78,10.44 32.78,8.67 33.90,7.56 35.02,6.45 35.26,5.38 35.51,4.31 35.62,3.06 35.73,1.81 35.75,-0.47 35.77,-2.76 35.29,-4.12 34.82,-5.48 33.74,-6.23 32.67,-6.98 31.99,-5.36 31.32,-3.74 30.79,-2.43 30.26,-1.12 29.33,1.33 28.40,3.80 28.26,6.03 28.13,8.27 28.31,10.03 28.50,11.79 29.55,13.43 30.59,15.08 32.31,16.32 34.04,17.56 35.63,18.38 37.22,19.21 39.15,19.55 41.07,19.90 44.19,20.08 47.31,20.26 49.81,20.36 52.31,20.45 55.90,20.21 59.49,19.97 61.92,19.88 64.34,19.78 67.48,18.63 70.61,17.48 73.09,16.16 75.57,14.83 76.85,13.92 78.13,13.00 78.77,12.13 79.40,11.25 79.56,9.92 79.72,8.58 79.24,7.52 78.75,6.46 77.63,6.15 76.51,5.84 75.27,5.84 74.02,5.84 73.57,7.45 73.11,9.06 75.06,10.34 77.00,11.62 78.71,11.93 80.42,12.24 83.15,12.47 85.88,12.71 89.07,12.86 92.26,13.01 94.06,12.79 95.86,12.57 98.23,11.71 100.61,10.85 102.42,9.70 104.24,8.55 105.28,6.52 106.32,4.49 106.47,3.42 106.61,2.35 106.63,0.71 106.64,-0.91 106.78,0.39 106.92,1.70 106.84,2.95 106.75,4.20 107.96,5.08 109.17,5.96 109.96,6.79 110.75,7.62 111.80,8.06 112.85,8.49 116.11,8.96 119.36,9.43 122.32,9.33 125.27,9.24 127.36,8.97 129.45,8.70 131.80,8.33 134.15,7.96 135.79,7.05 137.43,6.15 138.28,5.22 139.12,4.29 139.41,2.05 139.69,-0.18 139.24,-1.31 138.79,-2.44 137.85,-3.54 136.90,-4.64 136.00,-5.29 135.09,-5.95 133.99,-6.45 132.89,-6.94 131.56,-7.46 130.23,-7.99 128.20,-8.21 126.17,-8.43 124.19,-7.81 122.22,-7.19 120.51,-6.18 118.80,-5.17 116.59,-3.63 114.38,-2.08 113.01,0.09 111.64,2.27 110.73,3.86 109.82,5.46 108.84,7.48 107.87,9.51 107.48,11.38 107.10,13.26 107.02,14.66 106.94,16.06 106.90,17.76 106.86,19.46 106.87,21.05 106.89,22.65 107.60,23.88 108.31,25.11 109.30,25.57 110.28,26.04 111.55,26.55 112.82,27.06 114.92,27.66 117.02,28.26 119.58,28.55 122.14,28.85 124.12,28.99 126.10,29.12 127.78,29.13 129.46,29.14 130.68,28.64 131.91,28.15 132.19,26.72 132.47,25.29 132.58,23.79 132.68,22.30 132.68,21.06 132.68,19.83 132.29,18.19 131.89,16.54 130.47,14.83 129.06,13.12 128.04,12.04 127.01,10.96 125.61,9.67 124.20,8.38 122.68,7.96 121.15,7.54 119.90,7.39 118.65,7.25 117.31,7.21 115.98,7.17 114.11,7.33 112.25,7.49 110.96,7.90 109.68,8.30 108.50,9.18 107.31,10.06 105.95,11.70 104.59,13.33 103.36,14.73 102.14,16.13 101.46,17.65 100.79,19.17 100.57,20.35 100.36,21.54 100.33,23.26 100.30,24.98 101.85,25.14 103.40,25.29 104.72,25.32 106.04,25.35 107.46,25.38 108.89,25.40 109.82,24.74 110.76,24.07 109.87,23.37 108.97,22.67 106.82,20.31 104.66,17.95 102.54,16.48 100.41,15.00 97.21,13.16 94.01,11.31 89.97,10.27 85.92,9.23 83.03,8.74 80.15,8.26 76.95,8.03 73.75,7.81 70.66,7.70 67.56,7.59 65.41,7.53 63.25,7.47 61.43,8.25 59.60,9.04 58.30,9.97 56.99,10.90 56.30,11.81 55.62,12.73 55.13,13.86 54.65,14.99 54.10,15.94 53.55,16.90 53.49,18.28 53.44,19.67 54.38,21.06 55.31,22.44 57.74,24.03 60.17,25.62 61.60,25.97 63.04,26.31 65.56,26.56 68.09,26.82 70.37,26.97 72.64,27.13 73.85,27.09 75.06,27.05 75.67,25.90 76.28,24.76 75.73,23.12 75.17,21.49 73.63,19.47 72.10,17.45 70.59,15.65 69.09,13.85 66.36,12.35 63.62,10.84 60.66,9.26 57.71,7.67 55.96,7.06 54.21,6.45 51.87,6.17 49.54,5.90 47.09,5.76 44.63,5.62 42.83,5.87 41.03,6.13 38.89,6.75 36.75,7.38 35.40,8.23 34.04,9.07 33.34,9.96 32.63,10.84 31.42,12.52 30.21,14.20 29.84,15.42 29.46,16.65 29.36,18.63 29.25,20.61 30.13,21.77 31.00,22.93 32.48,23.45 33.95,23.96 35.68,24.25 37.41,24.54 39.58,24.75 41.74,24.95 44.40,25.08 47.05,25.20 48.58,24.93 50.11,24.65 51.21,23.30 52.30,21.95 52.38,20.68 52.47,19.42 52.26,18.23 52.06,17.05 50.94,15.94 49.83,14.83 47.56,14.02 45.30,13.22 43.33,12.47 41.37,11.71 39.43,11.10 37.48,10.48 35.35,10.21 33.21,9.95 31.69,9.92 30.18,9.89 28.86,10.18 27.54,10.47 25.92,11.08 24.29,11.69 22.31,13.46 20.32,15.24 19.24,16.62 18.16,18.00 17.42,18.99 16.69,19.98 15.80,21.00 14.91,22.03 14.42,23.09 13.94,24.14 13.77,25.54 13.60,26.94 14.73,27.03 15.86,27.12 17.60,27.25 19.34,27.38 20.95,27.44 22.56,27.50 23.61,25.90 24.66,24.30 23.93,23.39 23.21,22.47 21.63,21.10 20.06,19.73 19.02,19.36 17.98,18.99 15.94,17.72 13.91,16.45 12.40,15.33 10.89,14.22 9.13,13.53 7.38,12.84 6.05,12.61 4.71,12.39 3.62,12.34 2.52,12.30 1.02,12.26 -0.47,12.22 -0.69,13.35 -0.92,14.48 -1.41,16.27 -1.91,18.07 -2.38,19.43 -2.85,20.79 -3.07,22.49 -3.30,24.19 -2.03,24.11 -0.75,24.02 2.87,24.26 6.50,24.50 9.71,24.38 12.92,24.26 16.47,23.43 20.02,22.59 22.87,21.17 25.73,19.76 27.17,18.63 28.61,17.51 29.36,16.28 30.12,15.04 31.09,13.16 32.06,11.28 32.35,9.95 32.65,8.62 32.04,6.46 31.43,4.30 30.39,3.25 29.35,2.21 27.83,0.82 26.30,-0.56 24.58,-1.72 22.86,-2.87 21.28,-3.59 19.71,-4.30 17.95,-4.90 16.20,-5.49 14.54,-6.01 12.88,-6.53 11.27,-6.16 9.65,-5.80 9.60,-4.18 9.55,-2.56 9.54,-0.28 9.53,2.00 10.59,3.48 11.66,4.96 12.89,6.14 14.12,7.31 16.57,7.75 19.02,8.19 21.60,8.50 24.18,8.81 27.00,8.98 29.81,9.14 32.36,8.96 34.91,8.77 36.89,7.40 38.88,6.04 39.94,5.03 41.01,4.02 42.26,2.63 43.52,1.24 44.37,0.54 45.23,-0.15 46.41,-0.33 47.60,-0.52 48.66,-0.01 49.73,0.48 50.39,1.32 51.04,2.15 51.64,3.06 52.23,3.98 53.85,5.39 55.47,6.81 57.30,8.10 59.12,9.39 62.37,10.80 65.61,12.20 69.87,13.71 74.13,15.22 77.62,16.16 81.11,17.10 84.80,17.50 88.49,17.91 92.51,17.24 96.53,16.58 99.15,16.02 101.76,15.47 103.64,14.70 105.51,13.93 107.09,12.79 108.66,11.66 109.49,10.61 110.31,9.55 110.54,7.85 110.77,6.15 109.50,4.90 108.24,3.66 104.98,2.45 101.72,1.23 99.15,0.53 96.58,-0.17 94.79,-0.18 92.99,-0.19 90.50,0.02 88.01,0.24 86.45,0.67 84.90,1.10 82.89,2.02 80.89,2.94 78.81,3.91 76.74,4.88 75.79,5.84 74.84,6.80 73.51,8.07 72.19,9.33 71.13,10.67 70.06,12.00 69.69,13.63 69.32,15.26 70.40,16.01 71.47,16.77 72.75,17.02 74.03,17.26 75.74,17.46 77.44,17.66 80.16,17.83 82.89,18.01 85.63,17.55 88.37,17.10 90.05,16.63 91.74,16.16 92.42,15.23 93.10,14.31 94.02,12.86 94.94,11.42 95.23,10.10 95.52,8.77 95.75,6.86 95.98,4.94 96.12,2.70 96.26,0.45 95.52,-1.06 94.78,-2.58 93.44,-4.06 92.10,-5.53 89.84,-7.32 87.59,-9.11 86.03,-10.13 84.48,-11.15 82.79,-11.81 81.11,-12.47 79.24,-13.06 77.38,-13.64 76.06,-13.78 74.74,-13.93 73.15,-14.00 71.55,-14.08 70.00,-13.37 68.46,-12.65 67.14,-11.98 65.82,-11.30 64.59,-10.08 63.35,-8.86 61.84,-7.43 60.34,-6.00 59.20,-4.57 58.06,-3.15 57.01,-1.68 55.97,-0.21 54.95,1.47 53.93,3.17 53.28,4.51 52.63,5.84 52.43,7.31 52.24,8.78 52.16,10.29 52.08,11.80 52.25,13.51 52.42,15.22 53.85,15.95 55.29,16.68 57.04,17.43 58.79,18.19 63.42,18.81 68.04,19.43 73.00,20.32 77.96,21.21 81.72,21.59 85.48,21.97 89.31,21.86 93.14,21.75 95.52,21.15 97.91,20.56 99.25,20.20 100.59,19.83 101.08,18.24 101.57,16.65 101.65,15.36 101.73,14.07 100.76,13.51 99.80,12.95 98.53,12.83 97.27,12.71 95.77,12.29 94.28,11.86 93.07,11.74 91.85,11.62 90.61,12.13 89.37,12.65 88.83,13.75 88.28,14.85 88.12,15.96 87.96,17.07 88.98,19.10 90.01,21.13 92.76,22.45 95.52,23.76 98.20,24.17 100.88,24.58 102.94,24.81 105.00,25.04 107.86,25.16 110.73,25.28 113.31,25.07 115.89,24.85 117.81,24.48 119.73,24.10 120.92,23.36 122.12,22.62 123.37,21.49 124.62,20.35 124.58,18.95 124.53,17.55 124.27,15.87 124.00,14.19 122.87,12.54 121.73,10.89 120.51,10.20 119.28,9.50 117.20,8.09 115.12,6.69 112.98,5.84 110.85,5.00 107.08,4.02 103.32,3.05 98.60,2.32 93.88,1.60 89.83,0.98 85.78,0.37 80.67,0.10 75.57,-0.16 70.23,-0.29 64.89,-0.41 61.20,-0.48 57.51,-0.54 53.60,1.09 49.68,2.74 47.18,4.53 44.68,6.33 42.73,7.95 40.79,9.57 39.18,11.61 37.57,13.65 36.64,15.85 35.71,18.05 35.41,19.32 35.12,20.59 35.04,23.13 34.97,25.68 34.90,27.25 34.84,28.81 36.34,28.58 37.84,28.35 34.60,26.17 31.36,23.99 28.17,21.89 24.97,19.80 22.20,18.29 19.44,16.79 16.38,15.88 13.33,14.96 10.63,14.55 7.94,14.14 6.47,14.05 5.00,13.97 3.83,14.00 2.67,14.02 2.13,14.94 1.60,15.87 1.65,17.62 1.69,19.36 2.56,20.31 3.44,21.26 4.70,21.90 5.97,22.54 7.43,23.45 8.88,24.36 11.51,25.12 14.15,25.89 15.55,26.08 16.95,26.27 18.68,26.41 20.41,26.55 23.72,26.60 27.04,26.64 27.41,26.71 27.79,26.78 28.12,26.96 28.45,27.14 28.71,27.43 28.97,27.71 29.12,28.06 29.28,28.40 29.31,28.78 29.35,29.16 29.26,29.54 29.17,29.91 28.97,30.23 28.76,30.55 28.47,30.79 28.17,31.04 27.82,31.17 27.46,31.31 27.08,31.32 26.70,31.33 26.33,31.22 25.97,31.12 25.66,30.90 25.34,30.68 25.12,30.37 24.89,30.06 24.78,29.70 24.66,29.33 24.67,28.95 24.68,28.57 24.80,28.21 24.93,27.85 25.17,27.55 25.41,27.26 25.72,27.05 26.04,26.84 26.41,26.74 26.78,26.65 27.16,26.68 27.54,26.70 27.89,26.85 28.25,27.00 28.53,27.25 28.82,27.50 29.01,27.83 29.20,28.16 29.27,28.54 29.35,28.91 29.30,29.29 29.25,29.67 29.09,30.01 28.92,30.35 28.65,30.62 28.39,30.90 28.05,31.07 27.71,31.24 27.33,31.30 26.95,31.35 26.95,31.35 26.95,31.35 23.58,31.28 20.20,31.20 18.29,31.18 16.37,31.17 14.62,30.98 12.87,30.79 11.13,30.41 9.39,30.02 7.88,29.56 6.37,29.09 4.62,28.28 2.86,27.46 1.93,26.89 1.01,26.31 0.10,25.71 -0.80,25.12 -1.89,23.50 -2.98,21.88 -3.31,20.65 -3.65,19.43 -3.52,17.63 -3.40,15.84 -2.87,14.29 -2.35,12.75 -1.63,11.83 -0.91,10.90 0.99,10.54 2.89,10.18 4.13,10.34 5.38,10.50 6.87,10.75 8.37,11.00 11.30,11.36 14.24,11.72 17.66,12.62 21.08,13.53 24.08,14.95 27.08,16.38 30.68,18.46 34.29,20.55 36.99,22.64 39.68,24.73 41.30,26.43 42.92,28.13 42.55,30.18 42.17,32.23 40.97,32.86 39.77,33.48 38.59,33.45 37.42,33.41 36.35,33.26 35.27,33.11 34.06,32.69 32.85,32.27 32.02,31.26 31.20,30.25 31.22,27.87 31.25,25.50 31.38,23.78 31.51,22.05 31.83,20.83 32.14,19.60 32.71,18.30 33.27,17.00 34.37,14.50 35.46,12.01 37.26,9.76 39.06,7.51 41.08,5.82 43.10,4.12 45.86,2.16 48.63,0.21 53.04,-1.55 57.46,-3.32 61.21,-3.29 64.95,-3.27 70.33,-3.19 75.71,-3.10 80.96,-2.88 86.21,-2.66 90.27,-2.12 94.33,-1.58 99.23,-0.94 104.12,-0.30 108.11,0.58 112.10,1.46 114.67,2.29 117.24,3.11 119.46,4.28 121.69,5.46 123.83,6.77 125.98,8.07 126.54,9.08 127.11,10.08 127.94,11.47 128.77,12.87 129.04,14.27 129.31,15.68 129.21,16.84 129.10,18.00 128.88,19.45 128.65,20.90 127.19,22.67 125.72,24.43 124.69,25.00 123.66,25.57 122.01,26.32 120.35,27.06 118.27,27.48 116.19,27.90 113.42,28.21 110.66,28.51 107.70,28.50 104.74,28.48 102.58,28.39 100.41,28.30 97.20,27.97 94.00,27.63 91.55,26.77 89.10,25.91 87.74,24.90 86.38,23.88 84.82,21.75 83.26,19.61 83.10,17.90 82.93,16.19 83.38,14.11 83.83,12.03 84.60,10.89 85.38,9.75 86.16,8.98 86.95,8.22 88.12,7.74 89.28,7.27 90.82,7.07 92.36,6.88 94.00,7.10 95.65,7.33 96.82,7.71 97.99,8.10 100.28,8.54 102.58,8.98 103.68,9.97 104.77,10.97 105.42,12.43 106.06,13.90 105.70,15.76 105.34,17.61 104.66,19.43 103.99,21.25 102.68,22.10 101.37,22.95 99.99,23.13 98.60,23.30 95.92,23.97 93.25,24.65 89.23,24.81 85.21,24.97 81.32,24.64 77.44,24.31 72.53,23.53 67.62,22.75 62.56,22.15 57.49,21.55 55.38,20.78 53.27,20.01 51.03,18.51 48.79,17.01 48.55,14.25 48.30,11.49 48.48,9.81 48.67,8.14 49.09,6.17 49.51,4.20 50.32,2.87 51.13,1.54 52.18,-0.32 53.23,-2.20 54.36,-3.71 55.49,-5.23 56.76,-6.78 58.02,-8.33 59.47,-9.83 60.92,-11.33 62.58,-12.95 64.24,-14.56 65.68,-15.16 67.12,-15.75 69.36,-16.67 71.59,-17.59 73.48,-17.45 75.36,-17.30 76.83,-16.93 78.30,-16.56 80.28,-15.94 82.27,-15.32 84.22,-14.49 86.18,-13.67 87.78,-12.54 89.39,-11.41 91.86,-9.50 94.34,-7.58 96.00,-5.76 97.66,-3.93 98.58,-1.75 99.50,0.42 99.48,2.83 99.47,5.25 99.32,7.52 99.18,9.79 98.60,11.56 98.02,13.33 96.89,15.11 95.76,16.89 94.32,18.13 92.89,19.37 90.94,19.93 89.00,20.50 85.91,21.13 82.81,21.77 79.93,21.79 77.05,21.82 75.03,21.67 73.00,21.52 70.94,20.95 68.87,20.38 67.29,18.90 65.71,17.43 65.83,14.97 65.95,12.52 66.64,11.17 67.33,9.82 68.57,8.33 69.81,6.84 71.21,5.53 72.60,4.21 73.97,3.16 75.35,2.10 77.40,1.04 79.45,-0.01 81.74,-1.17 84.03,-2.32 85.82,-2.72 87.61,-3.12 90.28,-3.49 92.95,-3.87 95.19,-3.92 97.43,-3.98 100.28,-3.44 103.13,-2.89 105.52,-2.24 107.91,-1.58 110.20,-0.33 112.49,0.91 113.44,1.89 114.38,2.87 114.53,4.86 114.68,6.85 114.35,8.03 114.03,9.21 113.35,10.44 112.68,11.66 111.48,12.79 110.28,13.92 108.44,15.21 106.59,16.50 104.49,17.37 102.39,18.25 99.70,18.86 97.01,19.48 92.61,20.21 88.21,20.95 84.27,20.58 80.33,20.21 76.68,19.34 73.04,18.47 68.62,17.07 64.21,15.66 60.58,14.28 56.94,12.90 54.76,11.68 52.58,10.47 50.18,8.70 47.78,6.94 47.46,5.34 47.14,3.74 46.21,4.67 45.29,5.61 44.44,6.28 43.60,6.96 42.37,7.98 41.15,9.00 39.55,10.13 37.95,11.27 36.59,11.61 35.23,11.95 32.47,12.26 29.70,12.56 26.79,12.54 23.87,12.51 21.08,12.38 18.29,12.24 14.87,11.62 11.44,11.01 9.68,9.70 7.92,8.39 6.90,7.12 5.88,5.86 5.20,3.97 4.51,2.08 4.54,0.69 4.56,-0.69 4.65,-1.83 4.73,-2.96 4.92,-4.38 5.10,-5.81 5.66,-7.01 6.23,-8.21 7.18,-8.90 8.13,-9.60 9.92,-10.06 11.72,-10.52 12.85,-10.18 13.99,-9.83 15.63,-9.25 17.26,-8.66 19.21,-8.01 21.16,-7.36 22.89,-6.51 24.62,-5.66 26.60,-4.46 28.59,-3.27 30.39,-1.85 32.18,-0.43 33.54,1.07 34.89,2.58 35.77,4.71 36.65,6.84 36.38,8.23 36.11,9.62 35.57,11.16 35.04,12.71 34.04,14.88 33.05,17.05 31.90,18.60 30.74,20.14 29.05,21.50 27.35,22.86 24.18,24.57 21.01,26.28 17.14,27.39 13.27,28.51 9.85,28.92 6.42,29.33 2.56,29.45 -1.29,29.57 -3.20,29.28 -5.11,28.99 -6.04,28.29 -6.97,27.58 -7.71,26.11 -8.45,24.64 -8.39,23.25 -8.33,21.85 -8.07,20.51 -7.81,19.16 -7.38,17.79 -6.94,16.42 -6.20,14.34 -5.46,12.25 -4.65,10.82 -3.83,9.39 -1.56,8.61 0.71,7.83 1.85,7.96 2.98,8.08 4.26,8.30 5.54,8.52 7.09,8.91 8.64,9.31 10.97,10.07 13.29,10.84 14.62,11.79 15.94,12.75 17.87,13.66 19.80,14.56 21.33,15.24 22.85,15.93 24.61,17.04 26.37,18.15 28.01,19.63 29.64,21.11 29.87,22.65 30.09,24.19 29.60,25.65 29.10,27.11 28.37,28.25 27.65,29.39 26.65,30.48 25.64,31.57 24.11,32.01 22.58,32.45 20.91,32.48 19.25,32.51 17.33,32.58 15.41,32.65 14.32,32.52 13.23,32.39 11.96,31.97 10.70,31.54 9.84,30.47 8.99,29.40 8.87,27.85 8.74,26.31 9.39,24.20 10.03,22.09 10.89,20.60 11.75,19.12 12.66,18.23 13.57,17.34 14.38,16.51 15.18,15.69 16.36,14.16 17.54,12.63 19.05,11.03 20.57,9.43 21.79,8.86 23.01,8.30 24.97,7.55 26.94,6.80 28.66,6.61 30.39,6.41 31.97,6.59 33.55,6.77 35.98,6.98 38.42,7.20 40.47,7.74 42.53,8.27 44.56,8.86 46.58,9.46 49.66,10.47 52.74,11.49 54.73,13.31 56.72,15.12 57.03,16.37 57.35,17.62 57.24,18.78 57.14,19.95 56.35,22.28 55.56,24.61 54.58,25.61 53.60,26.62 52.20,27.37 50.80,28.13 48.90,28.39 47.00,28.65 44.28,28.68 41.56,28.71 39.21,28.69 36.85,28.68 34.71,28.45 32.56,28.22 30.33,27.52 28.10,26.81 26.86,25.72 25.62,24.63 25.24,23.62 24.86,22.60 24.94,21.42 25.02,20.23 25.21,19.07 25.40,17.91 25.76,16.62 26.12,15.34 26.81,13.85 27.51,12.36 28.82,10.36 30.14,8.37 31.31,7.37 32.48,6.37 34.20,5.49 35.91,4.61 38.28,3.89 40.66,3.16 42.71,2.94 44.76,2.72 47.32,2.82 49.87,2.92 52.56,3.21 55.24,3.49 57.19,4.20 59.14,4.91 62.17,6.43 65.20,7.95 68.43,9.69 71.67,11.43 73.39,13.22 75.12,15.00 77.12,17.35 79.12,19.70 80.02,22.04 80.92,24.37 80.61,25.43 80.31,26.48 79.41,27.96 78.51,29.43 76.84,30.14 75.18,30.85 73.85,30.75 72.53,30.64 70.19,30.65 67.85,30.65 64.94,30.56 62.02,30.46 60.12,29.98 58.21,29.50 56.01,28.51 53.80,27.51 52.48,26.30 51.16,25.10 50.59,24.06 50.03,23.03 49.44,21.24 48.85,19.46 49.04,18.26 49.23,17.07 50.28,15.15 51.33,13.23 52.19,11.81 53.06,10.39 54.19,9.36 55.31,8.33 56.93,7.39 58.54,6.45 60.87,5.54 63.21,4.62 65.42,4.63 67.64,4.64 70.78,4.69 73.93,4.74 77.28,4.90 80.63,5.05 83.68,5.46 86.74,5.86 91.26,6.92 95.78,7.97 99.22,9.71 102.65,11.45 105.31,12.99 107.97,14.54 110.31,16.57 112.65,18.61 114.28,20.22 115.91,21.82 116.11,23.22 116.31,24.61 115.93,25.72 115.54,26.83 114.44,28.27 113.33,29.71 111.09,30.13 108.84,30.55 107.38,30.55 105.92,30.55 104.51,30.52 103.10,30.49 101.73,30.37 100.35,30.25 99.11,29.77 97.88,29.29 97.16,28.37 96.44,27.46 96.29,25.26 96.15,23.06 96.39,21.82 96.64,20.58 97.11,19.14 97.57,17.70 98.50,15.75 99.42,13.80 100.61,12.46 101.80,11.12 103.42,9.00 105.05,6.89 106.81,5.71 108.58,4.53 110.19,4.15 111.80,3.78 114.03,3.45 116.26,3.12 117.79,3.29 119.33,3.46 120.77,3.80 122.22,4.14 124.33,4.86 126.44,5.58 128.19,6.98 129.93,8.39 130.90,9.57 131.88,10.76 133.81,13.03 135.73,15.31 136.44,17.63 137.15,19.95 137.05,21.28 136.95,22.61 136.81,24.44 136.67,26.27 136.13,27.84 135.60,29.41 134.48,30.45 133.37,31.49 131.41,32.11 129.45,32.72 127.69,32.65 125.94,32.58 123.89,32.52 121.84,32.46 118.98,32.30 116.13,32.14 113.60,31.67 111.08,31.19 109.58,30.52 108.08,29.86 106.61,28.91 105.14,27.96 104.13,26.42 103.11,24.87 103.15,23.72 103.19,22.57 103.27,20.94 103.35,19.31 103.46,17.48 103.57,15.65 103.84,14.16 104.12,12.66 104.56,10.44 105.00,8.21 105.97,6.00 106.93,3.78 107.90,2.15 108.86,0.53 110.54,-2.15 112.22,-4.83 114.47,-6.61 116.72,-8.40 118.76,-9.81 120.79,-11.22 123.57,-12.24 126.34,-13.26 129.14,-12.80 131.95,-12.35 133.45,-11.75 134.95,-11.16 136.46,-10.38 137.97,-9.60 139.14,-8.60 140.32,-7.60 141.55,-6.17 142.79,-4.73 143.26,-2.18 143.72,0.36 143.43,1.96 143.13,3.55 142.40,5.14 141.67,6.72 140.36,7.84 139.05,8.96 136.95,10.16 134.86,11.36 132.49,11.90 130.11,12.44 127.85,12.95 125.59,13.45 122.37,13.83 119.15,14.21 116.37,14.24 113.59,14.27 112.13,13.91 110.67,13.56 108.70,12.68 106.72,11.80 105.15,10.17 103.57,8.55 102.42,6.87 101.27,5.20 101.26,3.28 101.24,1.36 101.33,0.26 101.42,-0.83 101.95,-2.45 102.47,-4.06 103.64,-4.76 104.80,-5.45 106.85,-5.10 108.91,-4.75 109.68,-4.00 110.46,-3.25 110.72,-1.20 110.98,0.84 110.78,2.03 110.57,3.23 110.18,4.59 109.78,5.95 108.93,7.70 108.08,9.46 107.04,10.33 106.00,11.21 103.92,12.62 101.84,14.02 99.11,15.12 96.39,16.22 94.30,16.54 92.22,16.86 88.97,16.93 85.73,17.00 82.79,17.04 79.85,17.08 77.68,16.93 75.52,16.79 73.28,16.24 71.04,15.70 69.56,14.52 68.07,13.33 67.61,11.90 67.16,10.47 67.24,9.30 67.32,8.14 67.58,6.89 67.83,5.63 68.57,4.27 69.32,2.91 70.54,1.96 71.77,1.01 73.91,0.80 76.06,0.58 78.02,1.29 79.99,1.99 81.20,2.70 82.41,3.42 83.01,4.45 83.62,5.49 83.86,6.76 84.10,8.03 83.68,9.58 83.25,11.12 82.63,12.32 82.00,13.53 80.90,14.55 79.79,15.56 78.31,16.39 76.84,17.21 74.19,18.63 71.54,20.05 68.02,21.29 64.50,22.54 62.10,22.66 59.69,22.78 55.96,23.06 52.23,23.34 49.70,23.29 47.16,23.25 43.85,23.11 40.53,22.98 38.13,22.57 35.74,22.16 33.93,21.20 32.12,20.25 29.89,18.65 27.67,17.06 26.19,14.76 24.70,12.46 24.36,10.33 24.02,8.19 23.99,5.34 23.96,2.49 24.62,-0.25 25.28,-3.00 25.81,-4.48 26.34,-5.97 27.01,-7.46 27.68,-8.94 28.96,-10.28 30.23,-11.62 31.98,-11.84 33.73,-12.06 34.77,-11.57 35.81,-11.07 36.87,-10.13 37.93,-9.20 38.77,-7.22 39.61,-5.25 39.86,-3.98 40.10,-2.71 39.86,-0.15 39.63,2.40 39.30,4.01 38.98,5.62 38.20,7.22 37.43,8.82 36.16,9.92 34.89,11.02 32.60,13.11 30.32,15.20 26.56,17.14 22.81,19.08 20.18,20.12 17.54,21.17 13.94,22.16 10.33,23.15 7.73,23.24 5.13,23.34 3.90,23.13 2.68,22.92 1.08,22.23 -0.51,21.54 -1.34,20.12 -2.18,18.71 -2.17,17.50 -2.16,16.28 -2.21,14.45 -2.26,12.61 -2.27,11.00 -2.29,9.39 -2.22,8.30 -2.16,7.21 -2.23,5.33 -2.30,3.44 -2.34,1.72 -2.38,0 -2.34,-0.28 -2.31,-0.57 -2.21,-0.83 -2.11,-1.10 -1.94,-1.34 -1.78,-1.58 -1.56,-1.77 -1.35,-1.96 -1.09,-2.09 -0.84,-2.22 -0.56,-2.29 -0.28,-2.36 0.00,-2.36 0.28,-2.36 0.56,-2.29 0.84,-2.22 1.09,-2.09 1.35,-1.96 1.56,-1.77 1.78,-1.58 1.94,-1.34 2.11,-1.10 2.21,-0.83 2.31,-0.57 2.34,-0.28 2.38,0.00 2.38,0.00 L 2.38,0 Z"></path></g><g transform="translate(39 24.661317273348004) rotate(0 38.45833396911621 66.669341363326)"><text x="38.45833396911621" y="46.98855179287216" font-family="Excalifont, Xiaolai, Segoe UI Emoji" font-size="53.33547309066079px" fill="#1e1e1e" text-anchor="middle" style="white-space: pre;" direction="ltr" dominant-baseline="alphabetic">LU</text><text x="38.45833396911621" y="113.65789315619814" font-family="Excalifont, Xiaolai, Segoe UI Emoji" font-size="53.33547309066079px" fill="#1e1e1e" text-anchor="middle" style="white-space: pre;" direction="ltr" dominant-baseline="alphabetic">MA</text></g><g transform="translate(40.54166603088379 26.330658636674002) rotate(0 38.45833396911621 66.669341363326)"><text x="38.45833396911621" y="46.98855179287216" font-family="Excalifont, Xiaolai, Segoe UI Emoji" font-size="53.33547309066079px" fill="#1e1e1e" text-anchor="middle" style="white-space: pre;" direction="ltr" dominant-baseline="alphabetic">LU</text><text x="38.45833396911621" y="113.65789315619814" font-family="Excalifont, Xiaolai, Segoe UI Emoji" font-size="53.33547309066079px" fill="#1e1e1e" text-anchor="middle" style="white-space: pre;" direction="ltr" dominant-baseline="alphabetic">MA</text></g></svg>